<svg width="42" height="40" viewBox="0 0 42 40" fill="none" xmlns="http://www.w3.org/2000/svg">
<g clip-path="url(#clip0_3183_270)">
<path d="M39.4112 39.9999H2.05825C2.05825 39.9999 1.39648 39.7058 1.39648 39.3381V35.5146C1.39648 34.4852 2.20531 33.6764 3.23472 33.6764C3.52884 33.6764 3.74943 33.4558 3.74943 33.1616V30.4411C3.74943 30.4411 4.04354 29.7793 4.41119 29.7793H37.0582C37.0582 29.7793 37.72 30.0734 37.72 30.4411V33.6764H38.2347C39.2641 33.6764 40.073 34.4852 40.073 35.5146V39.3381C40.073 39.3381 39.7788 39.9999 39.4112 39.9999ZM2.72001 38.6764H38.7494V35.5146C38.7494 35.5146 38.5288 34.9999 38.2347 34.9999H37.0582C37.0582 34.9999 36.3965 34.7058 36.3965 34.3381V31.1028H4.99943V33.1616C4.99943 34.1911 4.1906 34.9999 3.16119 34.9999C2.86707 34.9999 2.64648 35.2205 2.64648 35.5146V38.6764H2.72001Z" fill="white" fill-opacity="0.9"/>
<path d="M23.236 35H3.23598C3.23598 35 2.57422 34.7059 2.57422 34.3383C2.57422 33.9706 2.86834 33.6765 3.23598 33.6765H23.3095C23.3095 33.6765 23.9713 33.9706 23.9713 34.3383C23.9713 34.7059 23.6772 35 23.3095 35H23.236Z" fill="white" fill-opacity="0.9"/>
<path d="M37.0588 35H27.1323C27.1323 35 26.4706 34.7059 26.4706 34.3383C26.4706 33.9706 26.7647 33.6765 27.1323 33.6765H37.0588C37.0588 33.6765 37.7206 33.9706 37.7206 34.3383C37.7206 34.7059 37.4265 35 37.0588 35Z" fill="white" fill-opacity="0.9"/>
<path d="M12.0581 31.103H4.33755C4.33755 31.103 3.67578 30.8089 3.67578 30.4412V9.33828C3.67578 9.33828 3.9699 8.67651 4.33755 8.67651H11.9846C11.9846 8.67651 12.6464 8.97063 12.6464 9.33828V30.4412C12.6464 30.4412 12.3523 31.103 11.9846 31.103H12.0581ZM5.07284 29.7795H11.3964V10H5.07284V29.7795Z" fill="white" fill-opacity="0.9"/>
<path d="M24.5588 31.103H16.9118C16.9118 31.103 16.25 30.8089 16.25 30.4412V9.33828C16.25 9.33828 16.5441 8.67651 16.9118 8.67651H24.5588C24.5588 8.67651 25.2206 8.97063 25.2206 9.33828V30.4412C25.2206 30.4412 24.9265 31.103 24.5588 31.103ZM17.5735 29.7795H23.8971V10H17.5735V29.7795Z" fill="white" fill-opacity="0.9"/>
<path d="M37.0588 31.103H29.4118C29.4118 31.103 28.75 30.8089 28.75 30.4412V9.33828C28.75 9.33828 29.0441 8.67651 29.4118 8.67651H37.0588C37.0588 8.67651 37.7206 8.97063 37.7206 9.33828V30.4412C37.7206 30.4412 37.4265 31.103 37.0588 31.103ZM30.0735 29.7795H36.3971V10H30.0735V29.7795Z" fill="white" fill-opacity="0.9"/>
<path d="M39.4112 10H2.05825C2.05825 10 1.39648 9.70588 1.39648 9.33823V5.66176C1.39648 5.66176 1.6906 5 2.05825 5H4.11707L9.33766 0.147059C9.33766 0.147059 9.63178 0 9.77884 0H31.6171C31.6171 0 31.9112 0 32.0583 0.147059L37.2788 5H39.3377C39.3377 5 39.9994 5.29412 39.9994 5.66176V9.33823C39.9994 9.33823 39.7053 10 39.3377 10H39.4112ZM2.64648 8.67647H38.6759V6.32353H36.9847C36.9847 6.32353 36.6906 6.32353 36.5435 6.17647L31.323 1.32353H9.99943L4.77884 6.17647C4.77884 6.17647 4.48472 6.32353 4.33766 6.32353H2.64648V8.67647Z" fill="white" fill-opacity="0.9"/>
<path d="M13.1611 6.32353H4.33755C4.33755 6.32353 3.67578 6.02941 3.67578 5.66176C3.67578 5.29412 3.9699 5 4.33755 5H13.0875C13.0875 5 13.7493 5.29412 13.7493 5.66176C13.7493 6.02941 13.4552 6.32353 13.0875 6.32353H13.1611Z" fill="white" fill-opacity="0.9"/>
<path d="M37.0582 6.32353H28.3082C28.3082 6.32353 27.6465 6.02941 27.6465 5.66176C27.6465 5.29412 27.9406 5 28.3082 5H37.0582C37.0582 5 37.72 5.29412 37.72 5.66176C37.72 6.02941 37.4259 6.32353 37.0582 6.32353Z" fill="white" fill-opacity="0.9"/>
<path d="M20.7361 7.94119C19.1185 7.94119 17.7949 6.61766 17.7949 5.00001C17.7949 3.38237 19.1185 2.05884 20.7361 2.05884C22.3537 2.05884 23.6773 3.38237 23.6773 5.00001C23.6773 6.61766 22.3537 7.94119 20.7361 7.94119ZM20.7361 3.30884C19.8537 3.30884 19.0449 4.04413 19.0449 4.92649C19.0449 5.80884 19.7802 6.61766 20.7361 6.61766C21.692 6.61766 22.3537 5.88237 22.3537 4.92649C22.3537 3.9706 21.6185 3.30884 20.7361 3.30884Z" fill="white" fill-opacity="0.9"/>
<path d="M19.3375 31.103C19.3375 31.103 18.6758 30.8089 18.6758 30.4412V9.33828C18.6758 9.33828 18.9699 8.67651 19.3375 8.67651C19.7052 8.67651 19.9993 8.97063 19.9993 9.33828V30.4412C19.9993 30.4412 19.7052 31.103 19.3375 31.103Z" fill="white" fill-opacity="0.9"/>
<path d="M22.0582 31.103C22.0582 31.103 21.3965 30.8089 21.3965 30.4412V9.33828C21.3965 9.33828 21.6906 8.67651 22.0582 8.67651C22.4259 8.67651 22.72 8.97063 22.72 9.33828V30.4412C22.72 30.4412 22.4259 31.103 22.0582 31.103Z" fill="white" fill-opacity="0.9"/>
<path d="M31.8375 31.103C31.8375 31.103 31.1758 30.8089 31.1758 30.4412V9.33828C31.1758 9.33828 31.4699 8.67651 31.8375 8.67651C32.2052 8.67651 32.4993 8.97063 32.4993 9.33828V30.4412C32.4993 30.4412 32.2052 31.103 31.8375 31.103Z" fill="white" fill-opacity="0.9"/>
<path d="M34.5582 31.103C34.5582 31.103 33.8965 30.8089 33.8965 30.4412V9.33828C33.8965 9.33828 34.1906 8.67651 34.5582 8.67651C34.9259 8.67651 35.22 8.97063 35.22 9.33828V30.4412C35.22 30.4412 34.9259 31.103 34.5582 31.103Z" fill="white" fill-opacity="0.9"/>
<path d="M6.83755 31.25C6.83755 31.25 6.17578 30.9558 6.17578 30.5882V9.48525C6.17578 9.48525 6.4699 8.82349 6.83755 8.82349C7.20519 8.82349 7.49931 9.1176 7.49931 9.48525V30.5882C7.49931 30.5882 7.20519 31.25 6.83755 31.25Z" fill="white" fill-opacity="0.9"/>
<path d="M9.55825 31.25C9.55825 31.25 8.89648 30.9558 8.89648 30.5882V9.48525C8.89648 9.48525 9.1906 8.82349 9.55825 8.82349C9.9259 8.82349 10.22 9.1176 10.22 9.48525V30.5882C10.22 30.5882 9.9259 31.25 9.55825 31.25Z" fill="white" fill-opacity="0.9"/>
<path d="M40.7353 40H0.661765C0.661765 40 0 39.7059 0 39.3383C0 38.9706 0.294118 38.6765 0.661765 38.6765H40.7353C40.7353 38.6765 41.3971 38.9706 41.3971 39.3383C41.3971 39.7059 41.1029 40 40.7353 40Z" fill="white" fill-opacity="0.9"/>
</g>
<defs>
<clipPath id="clip0_3183_270">
<rect width="41.3971" height="40" fill="white"/>
</clipPath>
</defs>
</svg>
