<svg width="34" height="40" viewBox="0 0 34 40" fill="none" xmlns="http://www.w3.org/2000/svg">
<g clip-path="url(#clip0_3919_1539)">
<path d="M17.0385 40C17.0385 40 16.8073 40 16.6531 39.9237L6.39909 33.6641C2.39002 31.2214 0 26.9466 0 22.2137V1.75573C0 0.763359 0.770975 0 1.77324 0H32.2268C33.229 0 34 0.763359 34 1.75573V22.1374C34 26.7939 31.61 31.145 27.6009 33.5878L17.3469 39.8473C17.3469 39.8473 17.1156 39.9237 16.9615 39.9237L17.0385 40ZM1.77324 1.37405C1.77324 1.37405 1.38776 1.52672 1.38776 1.75573V22.1374C1.38776 26.3359 3.54649 30.229 7.17007 32.4427L17.0385 38.4733L26.907 32.4427C30.5306 30.229 32.6893 26.3359 32.6893 22.1374V1.75573C32.6893 1.75573 32.5351 1.37405 32.3039 1.37405H1.77324Z" fill="white" fill-opacity="0.9"/>
<path d="M16.9612 21.145C16.9612 21.145 16.4215 20.9923 16.3444 20.7633C16.1902 20.458 16.3444 19.9999 16.6528 19.8473L30.4533 13.4351C30.4533 13.4351 31.2242 13.4351 31.3784 13.7404C31.5326 14.0457 31.3784 14.5038 31.0701 14.6564L17.2696 21.0686C17.2696 21.0686 17.1154 21.0686 16.9612 21.0686V21.145Z" fill="white" fill-opacity="0.9"/>
<path d="M16.9616 21.145C16.9616 21.145 16.7303 21.145 16.6532 21.145L2.77562 14.6564C2.77562 14.6564 2.39014 14.2748 2.39014 14.0458C2.39014 13.7404 2.54433 13.5114 2.85272 13.4351L16.7303 7.86255C16.7303 7.86255 17.1158 7.86255 17.27 7.86255L31.1475 13.4351C31.1475 13.4351 31.6872 13.9694 31.533 14.3511C31.3788 14.7328 30.9933 14.8854 30.6078 14.7328L16.9616 9.2366L4.78016 14.1221L17.27 19.8473C17.27 19.8473 17.7325 20.3816 17.5783 20.7633C17.4242 20.9923 17.1929 21.145 16.9616 21.145Z" fill="white" fill-opacity="0.9"/>
<path d="M16.9611 28.4732H16.8069C16.3444 28.4732 13.8001 28.4732 11.7956 27.1755C10.8704 26.6411 9.94527 26.2594 8.943 26.1068C8.63461 26.1068 8.40332 25.8014 8.40332 25.4197V16.8701C8.40332 16.8701 8.71171 16.1831 9.0972 16.1831C9.48268 16.1831 9.79107 16.4885 9.79107 16.8701V24.8854C10.7162 25.1144 11.6414 25.4961 12.5666 26.0304C14.4169 27.1755 16.884 27.0991 16.884 27.0991C16.884 27.0991 19.4283 27.0991 21.2786 26.0304C22.1267 25.4961 23.0518 25.1144 24.1312 24.8854V16.8701C24.1312 16.8701 24.3625 16.1831 24.748 16.1831C25.1335 16.1831 25.4419 16.4885 25.4419 16.8701V25.4197C25.4419 25.4197 25.2106 26.0304 24.9022 26.1068C23.8228 26.2594 22.8977 26.6411 21.9725 27.1755C19.9679 28.3968 17.4237 28.4732 16.9611 28.4732Z" fill="white" fill-opacity="0.9"/>
<path d="M13.9549 16.9465C13.9549 16.9465 13.8007 16.9465 13.7236 16.9465L8.40392 14.7327C8.40392 14.7327 7.94134 14.3511 8.01843 14.1221C8.01843 13.8167 8.17263 13.5877 8.48102 13.5114L16.8076 10.3816C16.8076 10.3816 17.5785 10.3816 17.6556 10.7633C17.8098 11.145 17.6556 11.5266 17.2701 11.603L10.4856 14.1221L14.2633 15.6488C14.2633 15.6488 14.803 16.1831 14.6488 16.5648C14.5717 16.7938 14.2633 16.9465 14.032 16.9465H13.9549Z" fill="white" fill-opacity="0.9"/>
<path d="M33.3829 5.64895H26.5213C26.5213 5.64895 25.8274 5.3436 25.8274 4.96193C25.8274 4.58025 26.1358 4.2749 26.5213 4.2749H33.3829C33.3829 4.2749 34.0768 4.58025 34.0768 4.96193C34.0768 5.3436 33.7684 5.64895 33.3829 5.64895Z" fill="white" fill-opacity="0.9"/>
<path d="M22.2041 5.64883H0.693878C0.693878 5.64883 0 5.34348 0 4.9618C0 4.58012 0.30839 4.27478 0.693878 4.27478H22.2041C22.2041 4.27478 22.898 4.58012 22.898 4.9618C22.898 5.34348 22.5896 5.64883 22.2041 5.64883Z" fill="white" fill-opacity="0.9"/>
<path d="M16.9619 35.0382C16.9619 35.0382 16.7306 35.0382 16.5764 34.9619L8.24988 29.6183C8.24988 29.6183 7.86439 29.0077 8.01858 28.7023C8.24988 28.397 8.63536 28.3206 8.94375 28.4733L16.9619 33.5878L24.98 28.4733C24.98 28.4733 25.751 28.397 25.9052 28.7023C26.1365 29.0077 25.9823 29.4657 25.6739 29.6183L17.3474 34.9619C17.3474 34.9619 17.1161 35.0382 16.9619 35.0382Z" fill="white" fill-opacity="0.9"/>
<path d="M26.4444 40H6.55325C6.55325 40 5.85938 39.6947 5.85938 39.313C5.85938 38.9313 6.16777 38.626 6.55325 38.626H26.4444C26.4444 38.626 27.1383 38.9313 27.1383 39.313C27.1383 39.6947 26.8299 40 26.4444 40Z" fill="white" fill-opacity="0.9"/>
</g>
<defs>
<clipPath id="clip0_3919_1539">
<rect width="34" height="40" fill="white"/>
</clipPath>
</defs>
</svg>
