<svg width="57" height="40" viewBox="0 0 57 40" fill="none" xmlns="http://www.w3.org/2000/svg">
<g clip-path="url(#clip0_3919_1565)">
<path d="M31.334 39.9999H1.17636C0.534709 39.9999 0 39.4623 0 38.8171V34.7311C0 32.9032 1.39024 31.5053 3.20826 31.5053H3.63602V29.1397C3.63602 28.172 4.38462 27.3118 5.45403 27.3118H27.0563C28.0188 27.3118 28.8743 28.172 28.8743 29.1397V31.5053H29.3021C31.0131 31.5053 32.5103 32.9032 32.5103 34.7311V38.8171C32.5103 39.4623 31.9756 39.9999 31.334 39.9999ZM2.35272 37.6343H30.1576V34.7311C30.1576 34.7311 29.7298 33.8709 29.3021 33.8709H27.6979C27.0563 33.8709 26.5216 33.3333 26.5216 32.6881V29.7849H5.98874V32.6881C5.98874 33.3333 5.45403 33.8709 4.81238 33.8709H3.20826C3.20826 33.8709 2.35272 34.301 2.35272 34.7311V37.6343Z" fill="white"/>
<path d="M14.0098 33.871H4.81283C4.17118 33.871 3.63647 33.3333 3.63647 32.6882C3.63647 32.043 4.17118 31.5054 4.81283 31.5054H14.0098C14.6515 31.5054 15.1862 32.043 15.1862 32.6882C15.1862 33.3333 14.6515 33.871 14.0098 33.871Z" fill="white"/>
<path d="M20.9607 23.871C20.9607 23.871 20.2121 23.871 19.8913 23.6559L12.2984 20.8602C11.5498 20.5376 10.9081 20 10.5873 19.2473C10.2665 18.4946 10.1595 17.6344 10.5873 16.8817C11.0151 15.8065 11.9776 15.0538 13.047 14.9463L16.5761 5.05378C15.8275 4.19356 15.5066 3.01077 15.9344 1.9355C16.4691 0.322596 18.2871 -0.430092 19.7843 0.107543L27.3772 2.90324C28.9813 3.44088 29.7299 5.26883 29.1952 6.77421C28.7674 7.84948 27.805 8.60217 26.7355 8.70969L23.2065 18.6022C23.955 19.4624 24.2759 20.6452 23.8481 21.7204C23.5273 22.4731 22.9926 23.1183 22.244 23.4409C21.8162 23.6559 21.3884 23.7635 20.9607 23.7635V23.871ZM13.3678 17.3118C13.3678 17.3118 12.8331 17.5269 12.7262 17.7419C12.7262 17.957 12.7262 18.0645 12.7262 18.2796C12.7262 18.4946 12.94 18.6022 13.1539 18.6022L20.7468 21.3979C20.7468 21.3979 21.0676 21.3979 21.2815 21.3979C21.4954 21.3979 21.6023 21.1828 21.6023 20.9678C21.7093 20.6452 21.6023 20.2151 21.2815 20.1075C20.7468 19.8925 20.5329 19.2473 20.7468 18.7097L24.9175 7.20432C25.1314 6.66668 25.6661 6.3441 26.3078 6.45163C26.6286 6.45163 27.0564 6.3441 27.1633 6.02152C27.2702 5.69894 27.1633 5.26883 26.7355 5.16131L19.1427 2.36561C19.1427 2.36561 18.3941 2.36561 18.2871 2.79571C18.1802 3.11829 18.2871 3.5484 18.608 3.65593C19.1427 3.87098 19.3565 4.51614 19.1427 5.05378L14.9719 16.5592C14.758 17.0968 14.2233 17.4194 13.5817 17.3118H13.4747H13.3678Z" fill="white"/>
<path d="M27.6979 33.871H20.9605C20.3189 33.871 19.7842 33.3333 19.7842 32.6882C19.7842 32.043 20.3189 31.5054 20.9605 31.5054H27.6979C28.3395 31.5054 28.8742 32.043 28.8742 32.6882C28.8742 33.3333 28.3395 33.871 27.6979 33.871Z" fill="white"/>
<path d="M25.8799 8.81724C25.8799 8.81724 25.666 8.81724 25.4522 8.81724L17.4315 5.91401C16.7899 5.69896 16.469 5.0538 16.6829 4.40864C16.8968 3.76348 17.5385 3.44089 18.1801 3.65595L26.2008 6.55917C26.8424 6.77423 27.1632 7.41939 26.9493 8.06455C26.7355 8.49466 26.3077 8.81724 25.8799 8.81724Z" fill="white"/>
<path d="M21.8165 20.3226C21.8165 20.3226 21.6026 20.3226 21.3887 20.3226L13.368 17.4194C12.7264 17.2043 12.4056 16.5592 12.6195 15.914C12.8333 15.2688 13.475 14.9463 14.1166 15.1613L22.1373 18.0645C22.7789 18.2796 23.0998 18.9248 22.8859 19.5699C22.672 20 22.2442 20.3226 21.8165 20.3226Z" fill="white"/>
<path d="M51.3317 26.129C51.3317 26.129 51.0108 26.129 50.9039 26.129L22.8851 15.9139C22.2435 15.6989 21.9227 15.0537 22.1365 14.4086L23.206 11.5053C23.206 11.5053 23.5268 10.9677 23.8476 10.8602C24.1684 10.7527 24.4893 10.7527 24.7031 10.8602L52.7219 21.0752C53.3636 21.2903 53.6844 21.9355 53.4705 22.5806L52.4011 25.4838C52.4011 25.4838 52.0803 26.0215 51.7594 26.129C51.6525 26.129 51.4386 26.2365 51.2247 26.2365L51.3317 26.129ZM24.8101 14.086L50.5831 23.4408L50.797 22.7957L25.024 13.4408L24.8101 14.086Z" fill="white"/>
<path d="M53.2567 28.387C53.2567 28.387 52.5081 28.387 52.1873 28.172C51.4387 27.8494 50.7971 27.3117 50.4762 26.5591C50.1554 25.8064 50.0485 24.9462 50.4762 24.1935L51.2248 22.0429C51.5457 21.2902 52.0804 20.6451 52.829 20.3225C53.5775 19.9999 54.4331 19.8924 55.1817 20.3225C55.9303 20.6451 56.5719 21.1827 56.8927 21.9354C57.2136 22.6881 57.3205 23.5483 56.8927 24.301L56.1442 26.4515C55.8233 27.2042 55.2886 27.8494 54.54 28.172C54.1123 28.387 53.6845 28.4945 53.2567 28.4945V28.387ZM54.0053 22.473C54.0053 22.473 53.7914 22.473 53.6845 22.473C53.4706 22.473 53.3637 22.6881 53.3637 22.9031L52.6151 25.0537C52.6151 25.0537 52.6151 25.8064 53.0428 26.0214C53.2567 26.0214 53.3637 26.0214 53.5775 26.0214C53.7914 26.0214 53.8984 25.8064 53.8984 25.5913L54.647 23.4408C54.647 23.4408 54.647 22.6881 54.2192 22.473H54.0053Z" fill="white"/>
</g>
<defs>
<clipPath id="clip0_3919_1565">
<rect width="57" height="40" fill="white"/>
</clipPath>
</defs>
</svg>
