<svg width="53" height="40" viewBox="0 0 53 40" fill="none" xmlns="http://www.w3.org/2000/svg">
<g clip-path="url(#clip0_3183_181)">
<path d="M13.7497 31.4976H10.0517C9.57762 31.4976 9.10352 31.1111 9.10352 30.5314C9.10352 29.9517 9.4828 29.5652 10.0517 29.5652H13.7497C14.2238 29.5652 14.6979 29.9517 14.6979 30.5314C14.6979 31.1111 14.3187 31.4976 13.7497 31.4976Z" fill="white"/>
<path d="M20.6709 36.3285C20.6709 36.3285 20.1968 36.3285 20.0072 36.0386C19.059 35.0724 17.7315 34.5893 16.404 34.7826L13.3697 35.0724C11.3785 35.2657 9.38726 34.9758 7.49085 34.1062L4.5514 32.657C3.22391 31.9806 2.08606 30.9178 1.42232 29.5652L0.189646 27.1497C-0.189637 26.3768 -0.189637 25.4106 0.284466 24.6376C0.75857 23.8647 1.61196 23.3816 2.46534 23.3816C3.31873 23.3816 4.0773 23.7681 4.5514 24.4444L5.78407 26.6666C6.16336 27.4396 6.8271 28.0193 7.68049 28.4057L9.1028 28.9855C9.19762 28.5024 9.48208 28.0193 9.76655 27.5362C10.4303 26.7632 11.2837 26.1835 12.3267 26.0869L18.2056 25.4106C19.2486 25.314 20.2917 25.4106 21.3347 25.7004C22.3777 25.9903 23.4207 26.57 24.2741 27.3429L27.1188 29.855C27.1188 29.855 27.4032 30.3381 27.4032 30.628C27.4032 30.9178 27.2136 31.2077 27.0239 31.3043L21.145 35.6521C21.145 35.6521 21.145 35.6521 21.0502 35.7487C20.8606 35.942 20.6709 36.0386 20.3865 36.0386L20.6709 36.3285ZM16.8781 32.8502C18.3004 32.8502 19.6279 33.3333 20.6709 34.2028L25.2223 30.8212L23.2311 29.0821C22.5674 28.5024 21.8088 28.1159 21.0502 27.826C20.2917 27.6328 19.5331 27.5362 18.6797 27.6328L12.8008 28.3091C12.2319 28.3091 11.7578 28.599 11.4733 29.0821C11.094 29.4685 10.9992 30.0483 11.094 30.5314C11.094 30.8212 10.9992 31.2077 10.7148 31.4009C10.4303 31.5942 10.1458 31.6908 9.76655 31.4975L7.11156 30.3381C5.87889 29.855 4.93069 28.8888 4.26694 27.7294L3.12909 25.5072C3.12909 25.5072 2.74981 25.2173 2.56017 25.2173C2.18088 25.2173 1.99124 25.4106 1.99124 25.6038C1.99124 25.7971 1.8016 25.9903 1.99124 26.2801L3.22391 28.6956C3.69802 29.6618 4.45658 30.4347 5.49961 30.9178L8.43905 32.3671C9.95619 33.0434 11.663 33.3333 13.2749 33.14L16.3092 32.8502C16.3092 32.8502 16.7833 32.8502 16.9729 32.8502H16.8781Z" fill="white"/>
<path d="M20.8602 40C20.8602 40 20.2913 39.9033 20.1965 39.7101L19.7224 39.1304C18.6793 37.6811 18.9638 35.6521 20.3861 34.5893L26.8339 29.7584C27.4977 29.2753 28.351 29.0821 29.2044 29.1787C30.0578 29.2753 30.8164 29.7584 31.2905 30.4347L31.575 30.8212C31.575 30.8212 31.7646 31.7874 31.3853 32.0772L21.524 39.8067C21.524 39.8067 21.1447 40 20.955 40H20.8602ZM28.6355 30.9178C28.6355 30.9178 28.0666 30.9178 27.8769 31.2077L21.4291 36.0386C21.4291 36.0386 20.955 36.5217 20.8602 36.9082C20.8602 37.198 20.8602 37.4879 20.955 37.7777L29.2993 31.2077C29.2993 31.2077 28.92 31.0144 28.7303 31.0144C28.7303 31.0144 28.6355 31.0144 28.5407 31.0144L28.6355 30.9178Z" fill="white"/>
<path d="M42.7634 31.4976H39.0654C38.5913 31.4976 38.1172 31.1111 38.1172 30.5314C38.1172 29.9517 38.4965 29.5652 39.0654 29.5652H42.7634C43.2375 29.5652 43.7116 29.9517 43.7116 30.5314C43.7116 31.1111 43.3323 31.4976 42.7634 31.4976Z" fill="white"/>
<path d="M32.2391 36.3285C32.2391 36.3285 31.765 36.3285 31.5753 36.0386C31.196 35.6521 31.196 35.0724 31.5753 34.6859C32.9028 33.3333 34.7992 32.657 36.6957 32.9468L39.7299 33.2367C41.4367 33.4299 43.0486 33.2367 44.5658 32.4637L47.5052 31.0144C48.4534 30.5314 49.3068 29.7584 49.7809 28.7922L51.0136 26.3768C51.0136 26.3768 51.0136 25.7971 51.0136 25.7004C51.0136 25.6038 50.7291 25.314 50.4447 25.314C50.255 25.314 50.0654 25.4106 49.8757 25.6038L48.7379 27.826C48.0741 28.9855 47.1259 29.855 45.8933 30.4347L43.2383 31.5942C43.2383 31.5942 42.5745 31.5942 42.2901 31.4975C42.0056 31.3043 41.9108 31.0144 41.9108 30.628C42.0056 29.4685 41.2471 28.5024 40.1092 28.4057L34.2303 27.7294C33.4717 27.7294 32.6184 27.7294 31.8598 27.9227C31.5753 27.9227 31.2909 28.1159 31.0064 28.2125C30.5323 28.4057 29.9634 28.2125 29.7737 27.7294C29.5841 27.2463 29.7737 26.6666 30.2478 26.4734C30.6271 26.2801 30.9116 26.1835 31.2909 26.0869C32.3339 25.7971 33.3769 25.7004 34.42 25.7971L40.2988 26.4734C41.9108 26.6666 43.1435 27.826 43.6176 29.3719L45.0399 28.7922C45.7984 28.4057 46.557 27.826 46.9363 27.0531L48.169 24.8309C48.6431 24.1545 49.4016 23.7681 50.255 23.7681C51.1084 23.7681 51.9618 24.2512 52.4359 25.0241C52.91 25.7971 52.91 26.7632 52.5307 27.5362L51.2981 29.9516C50.6343 31.3043 49.4965 32.3671 48.169 33.0434L45.2295 34.4927C43.4279 35.3623 41.3419 35.7487 39.3506 35.4589L36.3164 35.169C34.9889 34.9758 33.6614 35.4589 32.7132 36.4251C32.5235 36.6183 32.3339 36.7149 32.0494 36.7149L32.2391 36.3285Z" fill="white"/>
<path d="M32.0501 40.0001C32.0501 40.0001 31.6708 40.0001 31.4812 39.8069L28.0676 37.1016C28.0676 37.1016 27.5935 36.232 27.878 35.7489C28.1625 35.3624 28.7314 35.2658 29.2055 35.5557L31.8605 37.6813C31.8605 37.6813 32.0501 37.1016 31.9553 36.8117C31.9553 36.4252 31.6708 36.1354 31.3864 35.9421L30.7226 35.459C30.7226 35.459 30.2485 34.5895 30.533 34.1064C30.8174 33.6233 31.3864 33.6233 31.8605 33.9131L32.5242 34.3962C33.188 34.8793 33.6621 35.6523 33.7569 36.5218C33.8517 37.3914 33.7569 38.261 33.188 38.9373L32.619 39.6136C32.619 39.6136 32.1449 39.9035 31.9553 39.9035L32.0501 40.0001Z" fill="white"/>
<path d="M12.6121 11.2077C9.95715 11.2077 7.87109 9.08213 7.87109 6.37682C7.87109 3.6715 9.95715 1.5459 12.6121 1.5459C15.2671 1.5459 17.3532 3.6715 17.3532 6.37682C17.3532 9.08213 15.2671 11.2077 12.6121 11.2077ZM12.6121 3.47827C11.0002 3.47827 9.76751 4.83092 9.76751 6.37682C9.76751 7.92271 11.095 9.27537 12.6121 9.27537C14.1293 9.27537 15.4568 7.92271 15.4568 6.37682C15.4568 4.83092 14.1293 3.47827 12.6121 3.47827Z" fill="white"/>
<path d="M8.43844 20.5797C7.96434 20.5797 7.49023 20.1932 7.49023 19.6135V15.942C7.49023 15.4589 7.86952 14.9758 8.43844 14.9758C9.00737 14.9758 9.38665 15.3623 9.38665 15.942V19.6135C9.38665 20.0966 9.00737 20.5797 8.43844 20.5797Z" fill="white"/>
<path d="M16.8781 20.5797C16.404 20.5797 15.9299 20.1932 15.9299 19.6135V15.942C15.9299 15.4589 16.3092 14.9758 16.8781 14.9758C17.447 14.9758 17.8263 15.3623 17.8263 15.942V19.6135C17.8263 20.0966 17.447 20.5797 16.8781 20.5797Z" fill="white"/>
<path d="M19.7222 20.5797H5.49905C4.3612 20.5797 3.50781 19.7102 3.50781 18.5507C3.50781 15.2657 5.11977 12.3672 7.86957 10.628C8.24885 10.4348 8.62813 10.4348 8.9126 10.628C9.95563 11.4976 11.2831 11.9807 12.6106 11.9807C13.9381 11.9807 15.2656 11.4976 16.3086 10.628C16.5931 10.3382 17.0672 10.3382 17.3516 10.628C20.1015 12.2705 21.7134 15.2657 21.7134 18.5507C21.7134 19.7102 20.86 20.5797 19.7222 20.5797ZM8.24885 12.657C6.35244 14.0097 5.30941 16.2319 5.30941 18.5507C5.30941 18.5507 5.30941 18.6474 5.40423 18.6474H19.6273C19.6273 18.6474 19.7222 18.6474 19.7222 18.5507C19.7222 16.1353 18.5843 14.0097 16.7827 12.657C15.5501 13.5266 14.0329 14.0097 12.421 14.0097C10.809 14.0097 9.3867 13.5266 8.05921 12.657H8.24885Z" fill="white"/>
<path d="M16.4032 7.6328C14.5068 7.6328 13.1793 6.85986 12.6104 6.37677C10.2399 7.05309 8.72274 6.37677 8.5331 6.37677C8.059 6.18353 7.86936 5.60382 8.059 5.12073C8.24864 4.63763 8.81757 4.4444 9.29167 4.63763C9.29167 4.63763 10.5243 5.12073 12.5156 4.4444C12.8 4.34778 13.1793 4.4444 13.4638 4.63763C13.4638 4.63763 14.6016 5.70044 16.498 5.70044C16.9722 5.70044 17.4463 6.18353 17.4463 6.66662C17.4463 7.14971 17.067 7.6328 16.498 7.6328H16.4032Z" fill="white"/>
<path d="M39.161 11.2077C36.506 11.2077 34.42 9.08213 34.42 6.37682C34.42 3.6715 36.506 1.5459 39.161 1.5459C41.816 1.5459 43.902 3.6715 43.902 6.37682C43.902 9.08213 41.816 11.2077 39.161 11.2077ZM39.161 3.47827C37.549 3.47827 36.3164 4.83092 36.3164 6.37682C36.3164 7.92271 37.6439 9.27537 39.161 9.27537C40.6781 9.27537 42.0056 7.92271 42.0056 6.37682C42.0056 4.83092 40.6781 3.47827 39.161 3.47827Z" fill="white"/>
<path d="M34.8935 20.5797C34.4194 20.5797 33.9453 20.1932 33.9453 19.6135V15.942C33.9453 15.4589 34.3246 14.9758 34.8935 14.9758C35.4624 14.9758 35.8417 15.3623 35.8417 15.942V19.6135C35.8417 20.0966 35.4624 20.5797 34.8935 20.5797Z" fill="white"/>
<path d="M43.3331 20.5797C42.859 20.5797 42.3849 20.1932 42.3849 19.6135V15.942C42.3849 15.4589 42.7642 14.9758 43.3331 14.9758C43.902 14.9758 44.2813 15.3623 44.2813 15.942V19.6135C44.2813 20.0966 43.902 20.5797 43.3331 20.5797Z" fill="white"/>
<path d="M46.273 20.5797H32.0498C30.912 20.5797 30.0586 19.7102 30.0586 18.5507C30.0586 15.2657 31.6705 12.3672 34.4204 10.628C34.7996 10.4348 35.1789 10.4348 35.4634 10.628C36.5064 11.4976 37.8339 11.9807 39.1614 11.9807C40.4889 11.9807 41.8164 11.4976 42.8594 10.628C43.1439 10.3382 43.618 10.3382 43.9024 10.628C46.6522 12.2705 48.2642 15.2657 48.2642 18.5507C48.2642 19.7102 47.4108 20.5797 46.273 20.5797ZM34.7996 12.657C32.9032 14.0097 31.8602 16.2319 31.8602 18.5507C31.8602 18.5507 31.8602 18.6474 31.955 18.6474H46.1781C46.1781 18.6474 46.273 18.6474 46.273 18.5507C46.273 16.1353 45.1351 14.0097 43.3335 12.657C42.1008 13.5266 40.5837 14.0097 38.9717 14.0097C37.3598 14.0097 35.9375 13.5266 34.61 12.657H34.7996Z" fill="white"/>
<path d="M42.9538 7.6328C41.0574 7.6328 39.7299 6.85986 39.161 6.37677C36.7905 7.05309 35.2733 6.37677 35.0837 6.37677C34.6096 6.18353 34.42 5.60382 34.6096 5.12073C34.7992 4.63763 35.3682 4.4444 35.8423 4.63763C35.8423 4.63763 37.0749 5.12073 39.0662 4.4444C39.3506 4.34778 39.7299 4.4444 40.0144 4.63763C40.0144 4.63763 41.1522 5.70044 43.0486 5.70044C43.5228 5.70044 43.9969 6.18353 43.9969 6.66662C43.9969 7.14971 43.6176 7.6328 43.0486 7.6328H42.9538Z" fill="white"/>
<path d="M30.9118 9.95165H21.3349C20.8608 9.95165 20.3867 9.56518 20.3867 8.98547C20.3867 8.40576 20.766 8.01929 21.3349 8.01929H30.9118C31.3859 8.01929 31.86 8.40576 31.86 8.98547C31.86 9.56518 31.4807 9.95165 30.9118 9.95165Z" fill="white"/>
<path d="M23.4203 12.0773C23.4203 12.0773 22.9462 12.0773 22.7566 11.7875L20.6705 9.56525C20.6705 9.56525 20.2912 8.59907 20.6705 8.21259L22.7566 5.99037C22.7566 5.99037 23.7048 5.6039 24.0841 5.99037C24.4634 6.37684 24.4634 6.95655 24.0841 7.34303L22.5669 8.98554L23.9893 10.5314C23.9893 10.5314 24.3685 11.4976 23.9893 11.8841C23.7996 12.0773 23.61 12.1739 23.3255 12.1739L23.4203 12.0773Z" fill="white"/>
<path d="M30.9118 4.05786H21.3349C20.8608 4.05786 20.3867 3.67138 20.3867 3.09167C20.3867 2.51196 20.766 2.12549 21.3349 2.12549H30.9118C31.3859 2.12549 31.86 2.51196 31.86 3.09167C31.86 3.67138 31.4807 4.05786 30.9118 4.05786Z" fill="white"/>
<path d="M28.8252 6.28031C28.8252 6.28031 28.3511 6.28031 28.1614 5.99046C27.7821 5.60399 27.7821 5.02428 28.1614 4.6378L29.6785 2.99529L28.2562 1.4494C28.2562 1.4494 27.877 0.483213 28.2562 0.0967398C28.6355 -0.289734 29.2044 -0.289734 29.5837 0.0967398L31.6698 2.31896C31.6698 2.31896 32.0491 3.28515 31.6698 3.67162L29.5837 5.89384C29.5837 5.89384 29.1096 6.1837 28.92 6.1837L28.8252 6.28031Z" fill="white"/>
</g>
<defs>
<clipPath id="clip0_3183_181">
<rect width="52.91" height="40" fill="white"/>
</clipPath>
</defs>
</svg>
