<svg width="34" height="40" viewBox="0 0 34 40" fill="none" xmlns="http://www.w3.org/2000/svg">
<g clip-path="url(#clip0_3351_54)">
<path d="M16.7742 39.9242C16.7742 39.9242 16.6224 39.9242 16.4706 39.9242L8.72865 36.4327C3.41556 34.0798 0 28.7667 0 22.9223V4.63009C0 4.63009 0.303605 3.94698 0.683112 3.94698H5.6167C6.90702 3.94698 8.27324 3.64337 9.41177 3.11206L15.2562 0.303714C16.2429 -0.151694 17.3055 -0.151694 18.2163 0.303714L24.0607 3.03616C25.2751 3.56747 26.5655 3.87108 27.8558 3.87108H32.7894C32.7894 3.87108 33.4725 4.17468 33.4725 4.55419V22.8464C33.4725 28.6908 30.0569 34.0039 24.7438 36.3568L17.0019 39.8483C17.0019 39.8483 16.8501 39.8483 16.6983 39.8483L16.7742 39.9242ZM1.36622 5.2373V22.8464C1.36622 28.1595 4.47818 32.9413 9.33586 35.1424L16.7742 38.4821L24.2125 35.1424C29.0702 32.9413 32.1822 28.1595 32.1822 22.8464V5.2373H27.9317C26.4137 5.2373 24.8956 4.9337 23.5294 4.25058L17.685 1.51814C17.0778 1.21453 16.3947 1.21453 15.8634 1.51814L10.019 4.25058C8.65275 4.85779 7.13472 5.2373 5.6167 5.2373H1.36622Z" fill="#EB5E28"/>
<path d="M16.7741 36.2808C16.7741 36.2808 16.6223 36.2808 16.4705 36.2808L10.0948 33.3965C5.99615 31.5749 3.3396 27.4762 3.3396 22.9222V7.9696C3.3396 7.9696 3.6432 7.28649 4.02271 7.28649H5.61664C7.43827 7.28649 9.2599 6.90699 10.8538 6.14797L15.2561 4.09864C16.2428 3.64323 17.3054 3.64323 18.2163 4.09864L22.6185 6.14797C24.2125 6.90699 26.0341 7.28649 27.8557 7.28649H29.4497C29.4497 7.28649 30.1328 7.5901 30.1328 7.9696V22.9222C30.1328 27.4003 27.4762 31.499 23.3776 33.3965L17.0018 36.2808C17.0018 36.2808 16.85 36.2808 16.6982 36.2808H16.7741ZM4.70582 8.65272V22.9222C4.70582 26.869 7.05876 30.5123 10.702 32.1062L16.7741 34.8387L22.8462 32.1062C26.4895 30.5123 28.8424 26.869 28.8424 22.9222V8.65272H27.9316C25.9582 8.65272 23.9089 8.19731 22.0872 7.36239L17.685 5.31306C17.0777 5.00945 16.3946 5.00945 15.8633 5.31306L11.461 7.36239C9.63941 8.19731 7.66598 8.65272 5.61664 8.65272H4.70582Z" fill="#EB5E28"/>
<path d="M28.4629 39.9241H5.08533C5.08533 39.9241 4.40222 39.6205 4.40222 39.241C4.40222 38.8615 4.70583 38.5579 5.08533 38.5579H28.4629C28.4629 38.5579 29.1461 38.8615 29.1461 39.241C29.1461 39.6205 28.8425 39.9241 28.4629 39.9241Z" fill="#EB5E28"/>
<path d="M16.7742 39.9999C16.7742 39.9999 16.6224 39.9999 16.4706 39.9999L8.72865 36.5084C3.41556 34.1555 0 28.8424 0 22.998V4.62987C0 4.62987 0.303605 3.94676 0.683112 3.94676H5.6167C6.90702 3.94676 8.27324 3.64315 9.41177 3.11185L15.2562 0.379398C16.2429 -0.0760102 17.3055 -0.0760102 18.2163 0.379398L24.0607 3.11185C25.2751 3.64315 26.5655 3.94676 27.8558 3.94676H32.7894C32.7894 3.94676 33.4725 4.25037 33.4725 4.62987V22.9221C33.4725 28.7665 30.0569 34.0796 24.7438 36.4325L17.0019 39.924C17.0019 39.924 16.8501 39.924 16.6983 39.924L16.7742 39.9999ZM1.36622 5.31298V22.9221C1.36622 28.2352 4.47818 33.017 9.33586 35.2181L16.7742 38.5578L24.2125 35.2181C29.0702 33.017 32.1822 28.2352 32.1822 22.9221V5.31298H27.9317C26.4137 5.31298 24.8956 5.00938 23.5294 4.32627L17.685 1.59382C17.0778 1.29021 16.3947 1.29021 15.8634 1.59382L10.019 4.32627C8.65275 4.93348 7.13472 5.31298 5.6167 5.31298H1.36622Z" fill="#EB5E28"/>
<path d="M23.1503 22.7704C20.7215 22.7704 18.748 20.797 18.748 18.3682C18.748 17.9887 19.0517 17.6851 19.4312 17.6851H26.9454C26.9454 17.6851 27.6285 17.9887 27.6285 18.3682C27.6285 20.797 25.6551 22.7704 23.2262 22.7704H23.1503ZM20.1143 18.9754C20.4179 20.3416 21.6323 21.4042 23.1503 21.4042C24.6684 21.4042 25.8828 20.3416 26.1864 18.9754H20.1902H20.1143Z" fill="#EB5E28"/>
<path d="M26.0338 19.0512H20.3412C20.3412 19.0512 19.8858 18.8994 19.734 18.7476C19.5822 18.5958 19.5822 18.2922 19.734 18.0645L22.6182 12.296C22.6182 12.296 22.9977 11.9165 23.2254 11.9165C23.4531 11.9165 23.6808 12.0683 23.8326 12.296L26.7169 18.0645C26.7169 18.0645 26.7928 18.5199 26.7169 18.7476C26.641 18.9753 26.4133 19.0512 26.1097 19.0512H26.0338ZM21.4038 17.685H24.9712L23.2254 14.1176L21.4797 17.685H21.4038Z" fill="#EB5E28"/>
<path d="M10.3985 22.7704C7.96965 22.7704 5.99622 20.797 5.99622 18.3682C5.99622 17.9887 6.29982 17.6851 6.67933 17.6851H14.1936C14.1936 17.6851 14.8767 17.9887 14.8767 18.3682C14.8767 20.797 12.9032 22.7704 10.4744 22.7704H10.3985ZM7.36244 18.9754C7.66605 20.3416 8.88047 21.4042 10.3985 21.4042C11.9165 21.4042 13.1309 20.3416 13.4345 18.9754H7.43834H7.36244Z" fill="#EB5E28"/>
<path d="M13.2827 19.0512H7.59008C7.59008 19.0512 7.13467 18.8994 6.98287 18.7476C6.83107 18.5958 6.83107 18.2922 6.98287 18.0645L9.86712 12.296C9.86712 12.296 10.2466 11.9165 10.4743 11.9165C10.702 11.9165 10.9297 12.0683 11.0815 12.296L13.9658 18.0645C13.9658 18.0645 14.0417 18.5199 13.9658 18.7476C13.8899 18.9753 13.6622 19.0512 13.3586 19.0512H13.2827ZM8.6527 17.685H12.2201L10.4743 14.1176L8.7286 17.685H8.6527Z" fill="#EB5E28"/>
<path d="M16.7739 26.186C16.7739 26.186 16.0908 25.8824 16.0908 25.5029V12.8274C16.0908 12.8274 16.3944 12.1443 16.7739 12.1443C17.1534 12.1443 17.457 12.4479 17.457 12.8274V25.5029C17.457 25.5029 17.1534 26.186 16.7739 26.186Z" fill="#EB5E28"/>
<path d="M20.7973 28.8426H12.8276C12.8276 28.8426 12.1445 28.539 12.1445 28.1595V26.8692C12.1445 25.7306 13.0553 24.8198 14.1939 24.8198H19.507C20.6455 24.8198 21.5563 25.7306 21.5563 26.8692V28.1595C21.5563 28.1595 21.2527 28.8426 20.8732 28.8426H20.7973ZM13.4349 27.4764H20.1142V26.8692C20.1142 26.8692 19.8106 26.186 19.4311 26.186H14.118C14.118 26.186 13.4349 26.4897 13.4349 26.8692V27.4764Z" fill="#EB5E28"/>
<path d="M22.8459 28.8425H10.7017C10.7017 28.8425 10.0186 28.5389 10.0186 28.1594C10.0186 27.7799 10.3222 27.4763 10.7017 27.4763H22.8459C22.8459 27.4763 23.529 27.7799 23.529 28.1594C23.529 28.5389 23.2254 28.8425 22.8459 28.8425Z" fill="#EB5E28"/>
<path d="M16.7747 13.4346C15.6361 13.4346 14.6494 12.5237 14.6494 11.3093C14.6494 10.0949 15.5602 9.18408 16.7747 9.18408C17.9891 9.18408 18.8999 10.0949 18.8999 11.3093C18.8999 12.5237 17.9891 13.4346 16.7747 13.4346ZM16.7747 10.6262C16.3951 10.6262 16.0156 10.9298 16.0156 11.3852C16.0156 11.8406 16.3192 12.1442 16.7747 12.1442C17.2301 12.1442 17.5337 11.8406 17.5337 11.3852C17.5337 10.9298 17.2301 10.6262 16.7747 10.6262Z" fill="#EB5E28"/>
<path d="M10.3989 13.4346C10.3989 13.4346 9.71582 13.131 9.71582 12.7515C9.71582 11.6129 10.6266 10.6262 11.8411 10.6262H15.4084C15.4084 10.6262 16.0915 10.9298 16.0915 11.3093C16.0915 11.6888 15.7879 11.9924 15.4084 11.9924H11.8411C11.4616 11.9924 11.082 12.296 11.082 12.7515C11.082 13.131 10.7784 13.4346 10.3989 13.4346Z" fill="#EB5E28"/>
<path d="M23.1496 13.4346C23.1496 13.4346 22.4665 13.131 22.4665 12.7515C22.4665 12.372 22.1629 11.9924 21.7075 11.9924H18.1401C18.1401 11.9924 17.457 11.6888 17.457 11.3093C17.457 10.9298 17.7606 10.6262 18.1401 10.6262H21.7075C22.846 10.6262 23.8327 11.537 23.8327 12.7515C23.8327 13.131 23.5291 13.4346 23.1496 13.4346Z" fill="#EB5E28"/>
</g>
<defs>
<clipPath id="clip0_3351_54">
<rect width="33.5484" height="40" fill="white"/>
</clipPath>
</defs>
</svg>
