<svg width="40" height="40" viewBox="0 0 40 40" fill="none" xmlns="http://www.w3.org/2000/svg">
<path d="M33.4221 39.9252H26.8436C26.8436 39.9252 26.1631 39.6262 26.1631 39.2523V38.2804C26.1631 36.7851 27.4485 35.514 28.9608 35.514H29.2633V17.7197C29.2633 17.7197 29.5658 17.0468 29.9438 17.0468C30.3219 17.0468 30.6244 17.3458 30.6244 17.7197V36.1869C30.6244 36.1869 30.3219 36.8598 29.9438 36.8598H28.9608C28.1291 36.8598 27.5242 37.5327 27.5242 38.2804V38.5794H32.7416V25.3458C32.7416 25.3458 33.044 24.6729 33.4221 24.6729C33.8002 24.6729 34.4051 24.2243 34.4051 23.5514V12.7851C34.4051 11.8879 33.649 11.1402 32.7416 11.1402H30.8512C30.8512 11.1402 30.6244 11.215 30.6244 11.3645V13.3832C30.6244 13.3832 30.3219 14.0561 29.9438 14.0561C29.5658 14.0561 29.2633 13.757 29.2633 13.3832V11.3645C29.2633 10.4673 29.9438 9.79443 30.8512 9.79443H32.7416C34.4051 9.79443 35.7662 11.1402 35.7662 12.7851V23.5514C35.7662 24.5982 35.0857 25.5701 34.1027 25.8692V39.1776C34.1027 39.1776 33.8002 39.8505 33.4221 39.8505V39.9252Z" fill="white"/>
<path d="M32.1363 8.37382C29.7922 8.37382 27.9019 6.50466 27.9019 4.18691C27.9019 1.86916 29.7922 0 32.1363 0C34.4804 0 36.3707 1.86916 36.3707 4.18691C36.3707 6.50466 34.4804 8.37382 32.1363 8.37382ZM32.1363 1.34579C30.5484 1.34579 29.2629 2.61682 29.2629 4.18691C29.2629 5.757 30.5484 7.02803 32.1363 7.02803C33.7242 7.02803 35.0097 5.757 35.0097 4.18691C35.0097 2.61682 33.7242 1.34579 32.1363 1.34579Z" fill="white"/>
<path d="M7.86408 8.37382C5.52001 8.37382 3.62964 6.50466 3.62964 4.18691C3.62964 1.86916 5.52001 0 7.86408 0C10.2081 0 12.0985 1.86916 12.0985 4.18691C12.0985 6.50466 10.2081 8.37382 7.86408 8.37382ZM7.86408 1.34579C6.27616 1.34579 4.99071 2.61682 4.99071 4.18691C4.99071 5.757 6.27616 7.02803 7.86408 7.02803C9.45199 7.02803 10.7374 5.757 10.7374 4.18691C10.7374 2.61682 9.45199 1.34579 7.86408 1.34579Z" fill="white"/>
<path d="M26.8438 20.5606H22.7606C22.7606 20.5606 22.0801 20.2616 22.0801 19.8877C22.0801 19.5139 22.3825 19.2148 22.7606 19.2148H26.8438C26.8438 19.2148 27.2975 19.1401 27.4487 18.9905L31.1539 15.7756C31.1539 15.7756 31.8344 15.5513 32.1369 15.7756C32.3637 16.0747 32.3637 16.4485 32.1369 16.7476L28.4317 19.9625C27.978 20.3363 27.4487 20.5606 26.9194 20.5606H26.8438Z" fill="white"/>
<path d="M26.2392 17.271H24.4244C24.4244 17.271 23.7439 16.972 23.7439 16.5982C23.7439 16.2243 24.0464 15.9253 24.4244 15.9253H26.0123L29.9443 12.486C29.9443 12.486 30.7005 11.9626 31.1542 11.9626C31.5322 11.9626 31.8347 12.1869 31.9103 12.5608C31.9103 12.9346 31.6835 13.2337 31.3054 13.3084C31.0785 13.3084 30.9273 13.3832 30.7761 13.5327L26.6173 17.1215C26.6173 17.1215 26.3148 17.271 26.1636 17.271H26.2392Z" fill="white"/>
<path d="M13.1577 39.9252H6.57917C6.57917 39.9252 5.89864 39.6261 5.89864 39.2523V25.9439C4.99126 25.6448 4.23511 24.6729 4.23511 23.6261V12.8598C4.23511 11.2149 5.59618 9.86914 7.25971 9.86914H9.15008C10.0575 9.86914 10.738 10.542 10.738 11.4392V13.4579C10.738 13.4579 10.4355 14.1308 10.0575 14.1308C9.67938 14.1308 9.37692 13.8318 9.37692 13.4579V11.4392C9.37692 11.4392 9.30131 11.2149 9.15008 11.2149H7.25971C6.35233 11.2149 5.59618 11.9626 5.59618 12.8598V23.6261C5.59618 24.299 6.2011 24.7476 6.57917 24.7476C6.95725 24.7476 7.25971 25.0467 7.25971 25.4205V38.6541H12.4771V38.3551C12.4771 37.5327 11.7966 36.9345 11.0405 36.9345H10.0575C10.0575 36.9345 9.37692 36.6355 9.37692 36.2616V17.7944C9.37692 17.7944 9.67938 17.1215 10.0575 17.1215C10.4355 17.1215 10.738 17.4205 10.738 17.7944V35.5887H11.0405C12.5528 35.5887 13.8382 36.8598 13.8382 38.3551V39.327C13.8382 39.327 13.5357 39.9999 13.1577 39.9999V39.9252Z" fill="white"/>
<path d="M19.3567 20.5608H13.0806C12.5513 20.5608 11.9464 20.3365 11.5683 19.9626L7.86319 16.7477C7.86319 16.7477 7.56073 16.0748 7.86319 15.7757C8.09003 15.4767 8.54372 15.4767 8.84618 15.7757L12.5513 18.9907C12.5513 18.9907 12.9294 19.215 13.1562 19.215H19.4323C19.9616 19.215 20.4153 18.7664 20.4153 18.243C20.4153 17.7196 19.9616 17.2711 19.4323 17.2711H13.7612C13.7612 17.2711 13.4587 17.2711 13.3075 17.1215L9.14864 13.5327C9.14864 13.5327 8.84618 13.3084 8.61934 13.3084C8.24126 13.3084 8.01442 12.9346 8.01442 12.5608C8.01442 12.1869 8.39249 11.9626 8.77057 11.9626C9.22426 11.9626 9.67795 12.1869 9.98041 12.486L13.9124 15.9253H19.281C20.5665 15.9253 21.6251 16.972 21.6251 18.243C21.6251 19.514 20.5665 20.5608 19.281 20.5608H19.3567Z" fill="white"/>
<path d="M36.144 39.9253H3.70519C3.70519 39.9253 3.02466 39.6262 3.02466 39.2524C3.02466 38.8785 3.32712 38.5795 3.70519 38.5795H36.144C36.144 38.5795 36.8245 38.8785 36.8245 39.2524C36.8245 39.6262 36.5221 39.9253 36.144 39.9253Z" fill="white"/>
<path d="M2.34406 17.2711H0.680535C0.680535 17.2711 0 16.972 0 16.5982C0 16.2244 0.30246 15.9253 0.680535 15.9253H2.34406C2.34406 15.9253 3.0246 16.2244 3.0246 16.5982C3.0246 16.972 2.72214 17.2711 2.34406 17.2711Z" fill="white"/>
<path d="M2.34406 22.056H0.680535C0.680535 22.056 0 21.7569 0 21.3831C0 21.0093 0.30246 20.7102 0.680535 20.7102H2.34406C2.34406 20.7102 3.0246 21.0093 3.0246 21.3831C3.0246 21.7569 2.72214 22.056 2.34406 22.056Z" fill="white"/>
<path d="M2.34406 26.8412H0.680535C0.680535 26.8412 0 26.5421 0 26.1683C0 25.7944 0.30246 25.4954 0.680535 25.4954H2.34406C2.34406 25.4954 3.0246 25.7944 3.0246 26.1683C3.0246 26.5421 2.72214 26.8412 2.34406 26.8412Z" fill="white"/>
<path d="M39.3194 17.2711H37.6559C37.6559 17.2711 36.9753 16.972 36.9753 16.5982C36.9753 16.2244 37.2778 15.9253 37.6559 15.9253H39.3194C39.3194 15.9253 39.9999 16.2244 39.9999 16.5982C39.9999 16.972 39.6975 17.2711 39.3194 17.2711Z" fill="white"/>
<path d="M39.3194 22.056H37.6559C37.6559 22.056 36.9753 21.7569 36.9753 21.3831C36.9753 21.0093 37.2778 20.7102 37.6559 20.7102H39.3194C39.3194 20.7102 39.9999 21.0093 39.9999 21.3831C39.9999 21.7569 39.6975 22.056 39.3194 22.056Z" fill="white"/>
<path d="M39.3194 26.841H37.6559C37.6559 26.841 36.9753 26.542 36.9753 26.1681C36.9753 25.7943 37.2778 25.4952 37.6559 25.4952H39.3194C39.3194 25.4952 39.9999 25.7943 39.9999 26.1681C39.9999 26.542 39.6975 26.841 39.3194 26.841Z" fill="white"/>
<path d="M19.9625 17.2709C19.9625 17.2709 19.8113 17.2709 19.6601 17.2709L16.5599 15.9251C14.2914 14.9532 12.8547 12.785 12.8547 10.3924V3.28964C12.8547 3.28964 13.1572 2.61675 13.5353 2.61675C15.2744 2.61675 17.0136 2.24292 18.6015 1.49525L19.5845 1.04666C19.5845 1.04666 19.9625 0.971891 20.1138 1.04666L21.0968 1.49525C22.6847 2.24292 24.4238 2.61675 26.163 2.61675C26.541 2.61675 26.8435 2.91581 26.8435 3.28964V10.3177C26.8435 12.7102 25.4068 14.8784 23.1384 15.8504L20.0382 17.1962C20.0382 17.1962 19.8869 17.1962 19.7357 17.1962L19.9625 17.2709ZM14.2914 3.88777V10.2429C14.2914 12.1121 15.4256 13.8317 17.1648 14.5794L19.9625 15.7756L22.7603 14.5794C24.4994 13.8317 25.6337 12.1121 25.6337 10.2429V3.88777C23.8945 3.81301 22.231 3.36441 20.6431 2.69152L19.8869 2.39245L19.1308 2.69152C17.5429 3.36441 15.8793 3.81301 14.1402 3.88777H14.2914Z" fill="white"/>
<path d="M23.3659 13.2338H16.485C16.485 13.2338 15.8044 12.9347 15.8044 12.5609V4.93474C15.8044 4.93474 16.1069 4.26184 16.485 4.26184H21.4756C21.4756 4.26184 22.1561 4.56091 22.1561 4.93474C22.1561 5.30857 21.8536 5.60763 21.4756 5.60763H17.1655V11.9628H22.6854V6.80389C22.6854 6.80389 22.9879 6.131 23.3659 6.131C23.744 6.131 24.0465 6.43006 24.0465 6.80389V12.6357C24.0465 12.6357 23.744 13.3086 23.3659 13.3086V13.2338Z" fill="white"/>
<path d="M21.475 7.40196C21.475 7.40196 20.7944 7.1029 20.7944 6.72906V4.85991C20.7944 4.85991 21.0969 4.18701 21.475 4.18701C21.853 4.18701 22.1555 4.48608 22.1555 4.85991V6.72906C22.1555 6.72906 21.853 7.40196 21.475 7.40196Z" fill="white"/>
<path d="M23.3653 7.40182H21.475C21.475 7.40182 20.7944 7.10276 20.7944 6.72893C20.7944 6.3551 21.0969 6.05603 21.475 6.05603H23.3653C23.3653 6.05603 24.0459 6.3551 24.0459 6.72893C24.0459 7.10276 23.7434 7.40182 23.3653 7.40182Z" fill="white"/>
<path d="M20.6431 11.1402H18.9039C18.9039 11.1402 18.2234 10.8412 18.2234 10.4673C18.2234 10.0935 18.5258 9.79443 18.9039 9.79443H20.6431C20.6431 9.79443 21.3236 10.0935 21.3236 10.4673C21.3236 10.8412 21.0211 11.1402 20.6431 11.1402Z" fill="white"/>
<path d="M20.6431 9.19626H18.9039C18.9039 9.19626 18.2234 8.89719 18.2234 8.52336C18.2234 8.14953 18.5258 7.85046 18.9039 7.85046H20.6431C20.6431 7.85046 21.3236 8.14953 21.3236 8.52336C21.3236 8.89719 21.0211 9.19626 20.6431 9.19626Z" fill="white"/>
<path d="M24.7265 24.4485H14.8209C14.8209 24.4485 14.1404 24.1494 14.1404 23.7756C14.1404 23.4017 14.4428 23.1027 14.8209 23.1027H24.7265C24.7265 23.1027 25.407 23.4017 25.407 23.7756C25.407 24.1494 25.1045 24.4485 24.7265 24.4485Z" fill="white"/>
<path d="M24.7265 28.2617H14.8209C14.8209 28.2617 14.1404 27.9626 14.1404 27.5888C14.1404 27.215 14.4428 26.9159 14.8209 26.9159H24.7265C24.7265 26.9159 25.407 27.215 25.407 27.5888C25.407 27.9626 25.1045 28.2617 24.7265 28.2617Z" fill="white"/>
<path d="M24.7265 32H14.8209C14.8209 32 14.1404 31.7009 14.1404 31.3271C14.1404 30.9532 14.4428 30.6542 14.8209 30.6542H24.7265C24.7265 30.6542 25.407 30.9532 25.407 31.3271C25.407 31.7009 25.1045 32 24.7265 32Z" fill="white"/>
</svg>
