<svg width="44" height="40" viewBox="0 0 44 40" fill="none" xmlns="http://www.w3.org/2000/svg">
<g clip-path="url(#clip0_3183_292)">
<path d="M34.3677 28.6532C29.4697 28.6532 25.4697 24.6532 25.4697 19.7552C25.4697 19.347 25.7963 19.0205 26.2044 19.0205H42.6126C42.6126 19.0205 43.3473 19.347 43.3473 19.7552C43.3473 24.6532 39.3473 28.6532 34.4493 28.6532H34.3677ZM26.9391 20.4899C27.3473 24.245 30.531 27.2654 34.3677 27.2654C38.2044 27.2654 41.4697 24.3266 41.7963 20.4899H26.9391Z" fill="white" fill-opacity="0.9"/>
<path d="M40.6531 20.4082H28.1633C28.1633 20.4082 27.6735 20.245 27.5102 20.0817C27.3469 19.8368 27.3469 19.5919 27.5102 19.347L33.7959 6.69393C33.7959 6.69393 34.2041 6.28577 34.449 6.28577C34.6939 6.28577 35.0204 6.44903 35.102 6.69393L41.3878 19.347C41.3878 19.347 41.4694 19.8368 41.3878 20.0817C41.2245 20.3266 41.0612 20.4082 40.7347 20.4082H40.6531ZM29.3061 18.9388H39.4286L34.3673 8.65311L29.3061 18.9388Z" fill="white" fill-opacity="0.9"/>
<path d="M8.89796 28.653C4 28.653 0 24.653 0 19.7551C0 19.3469 0.326531 19.0204 0.734694 19.0204H17.1429C17.1429 19.0204 17.8776 19.3469 17.8776 19.7551C17.8776 24.653 13.8776 28.653 8.97959 28.653H8.89796ZM1.46939 20.4081C1.87755 24.1632 5.06122 27.1837 8.89796 27.1837C12.7347 27.1837 16 24.2449 16.3265 20.4081H1.46939Z" fill="white" fill-opacity="0.9"/>
<path d="M15.1833 20.4081H2.69348C2.69348 20.4081 2.20368 20.2448 2.04042 20.0816C1.87715 19.8367 1.87715 19.5918 2.04042 19.3469L8.32613 6.69381C8.32613 6.69381 8.7343 6.28564 8.97919 6.28564C9.22409 6.28564 9.55062 6.44891 9.63225 6.69381L15.918 19.3469C15.918 19.3469 15.9996 19.8367 15.918 20.0816C15.7547 20.3265 15.5914 20.4081 15.2649 20.4081H15.1833ZM3.83634 18.9387H13.9588L8.89756 8.65299L3.83634 18.9387Z" fill="white" fill-opacity="0.9"/>
<path d="M21.6331 28.6531C21.6331 28.6531 20.8984 28.3265 20.8984 27.9184V4.73469C20.8984 4.73469 21.225 4 21.6331 4C22.0413 4 22.3678 4.32653 22.3678 4.73469V27.9184C22.3678 27.9184 22.0413 28.6531 21.6331 28.6531Z" fill="white" fill-opacity="0.9"/>
<path d="M37.3878 7.75515H5.95919C5.95919 7.75515 5.22449 7.42862 5.22449 7.02046C5.22449 6.6123 5.55102 6.28577 5.95919 6.28577H37.3878C37.3878 6.28577 38.1225 6.6123 38.1225 7.02046C38.1225 7.42862 37.7959 7.75515 37.3878 7.75515Z" fill="white" fill-opacity="0.9"/>
<path d="M28.6531 40.0001H14.7755C14.7755 40.0001 14.0408 39.6735 14.0408 39.2654V35.9184C14.0408 35.9184 14.3673 35.1837 14.7755 35.1837H16.6531L18.2041 32.245C18.2041 32.245 18.6122 31.8368 18.8571 31.8368H24.5714C24.5714 31.8368 25.0612 32.0001 25.2245 32.245L26.7755 35.1837H28.6531C28.6531 35.1837 29.3878 35.5103 29.3878 35.9184V39.2654C29.3878 39.2654 29.0612 40.0001 28.6531 40.0001ZM15.4286 38.5307H27.9184V36.6531H26.2857C26.2857 36.6531 25.7959 36.4899 25.6327 36.245L24.0816 33.3062H19.1837L17.6327 36.245C17.6327 36.245 17.2245 36.6531 16.9796 36.6531H15.3469V38.5307H15.4286Z" fill="white" fill-opacity="0.9"/>
<path d="M23.4286 33.3062H19.9184C19.9184 33.3062 19.1837 32.9796 19.1837 32.5715V27.9184C19.1837 27.9184 19.5102 27.1837 19.9184 27.1837H23.4286C23.4286 27.1837 24.1633 27.5102 24.1633 27.9184V32.5715C24.1633 32.5715 23.8367 33.3062 23.4286 33.3062ZM20.5714 31.8368H22.6939V28.5715H20.5714V31.8368Z" fill="white" fill-opacity="0.9"/>
<path d="M34.8575 39.9999H8.40852C8.40852 39.9999 7.67383 39.6734 7.67383 39.2652C7.67383 38.857 8.00036 38.5305 8.40852 38.5305H34.8575C34.8575 38.5305 35.5922 38.857 35.5922 39.2652C35.5922 39.6734 35.2657 39.9999 34.8575 39.9999Z" fill="white" fill-opacity="0.9"/>
<path d="M21.6324 5.4693C20.163 5.4693 18.9385 4.24481 18.9385 2.77542C18.9385 1.30603 20.163 0.081543 21.6324 0.081543C23.1017 0.081543 24.3262 1.30603 24.3262 2.77542C24.3262 4.24481 23.1017 5.4693 21.6324 5.4693ZM21.6324 1.4693C20.8977 1.4693 20.4079 2.04073 20.4079 2.69379C20.4079 3.34685 20.9793 3.91828 21.6324 3.91828C22.2854 3.91828 22.8568 3.34685 22.8568 2.69379C22.8568 2.04073 22.2854 1.4693 21.6324 1.4693Z" fill="white" fill-opacity="0.9"/>
<path d="M20.7343 36.653H17.0609C17.0609 36.653 16.3262 36.3265 16.3262 35.9183C16.3262 35.5101 16.6527 35.1836 17.0609 35.1836H20.7343C20.7343 35.1836 21.469 35.5101 21.469 35.9183C21.469 36.3265 21.1425 36.653 20.7343 36.653Z" fill="white" fill-opacity="0.9"/>
</g>
<defs>
<clipPath id="clip0_3183_292">
<rect width="43.3469" height="40" fill="white"/>
</clipPath>
</defs>
</svg>
