<svg width="34" height="40" viewBox="0 0 34 40" fill="none" xmlns="http://www.w3.org/2000/svg">
<path d="M17.0001 40C17.0001 40 16.7694 40 16.6155 39.9237L6.38466 33.6641C2.38463 31.2214 0 26.9466 0 22.2137V1.75573C0 0.763359 0.769237 0 1.76924 0H32.1541C33.1541 0 33.9233 0.763359 33.9233 1.75573V22.1374C33.9233 26.7939 31.5387 31.145 27.5387 33.5878L17.3078 39.8473C17.3078 39.8473 17.0771 39.9237 16.9232 39.9237L17.0001 40ZM1.76924 1.37405C1.76924 1.37405 1.38463 1.52672 1.38463 1.75573V22.1374C1.38463 26.3359 3.53849 30.229 7.1539 32.4427L17.0001 38.4733L26.8464 32.4427C30.4618 30.229 32.6156 26.3359 32.6156 22.1374V1.75573C32.6156 1.75573 32.4618 1.37405 32.231 1.37405H1.76924Z" fill="white"/>
<path d="M16.9228 21.145C16.9228 21.145 16.3843 20.9923 16.3074 20.7633C16.1536 20.458 16.3074 19.9999 16.6151 19.8473L30.3845 13.4351C30.3845 13.4351 31.1537 13.4351 31.3075 13.7404C31.4614 14.0457 31.3075 14.5038 30.9998 14.6564L17.2305 21.0686C17.2305 21.0686 17.0767 21.0686 16.9228 21.0686V21.145Z" fill="white"/>
<path d="M16.9231 21.145C16.9231 21.145 16.6923 21.145 16.6154 21.145L2.76914 14.6564C2.76914 14.6564 2.38452 14.2748 2.38452 14.0458C2.38452 13.7404 2.53837 13.5114 2.84606 13.4351L16.6923 7.86255C16.6923 7.86255 17.0769 7.86255 17.2308 7.86255L31.077 13.4351C31.077 13.4351 31.6155 13.9694 31.4617 14.3511C31.3078 14.7328 30.9232 14.8854 30.5386 14.7328L16.9231 9.2366L4.76915 14.1221L17.2308 19.8473C17.2308 19.8473 17.6923 20.3816 17.5385 20.7633C17.3846 20.9923 17.1539 21.145 16.9231 21.145Z" fill="white"/>
<path d="M16.9228 28.4732H16.769C16.3074 28.4732 13.7689 28.4732 11.7689 27.1755C10.8458 26.6411 9.92275 26.2594 8.92274 26.1068C8.61505 26.1068 8.38428 25.8014 8.38428 25.4197V16.8701C8.38428 16.8701 8.69197 16.1831 9.07659 16.1831C9.46121 16.1831 9.7689 16.4885 9.7689 16.8701V24.8854C10.692 25.1144 11.6151 25.4961 12.5382 26.0304C14.3843 27.1755 16.8459 27.0991 16.8459 27.0991C16.8459 27.0991 19.3844 27.0991 21.2305 26.0304C22.0767 25.4961 22.9998 25.1144 24.0767 24.8854V16.8701C24.0767 16.8701 24.3075 16.1831 24.6921 16.1831C25.0767 16.1831 25.3844 16.4885 25.3844 16.8701V25.4197C25.3844 25.4197 25.1536 26.0304 24.8459 26.1068C23.769 26.2594 22.8459 26.6411 21.9228 27.1755C19.9228 28.3968 17.3843 28.4732 16.9228 28.4732Z" fill="white"/>
<path d="M13.9235 16.9465C13.9235 16.9465 13.7696 16.9465 13.6927 16.9465L8.38497 14.7327C8.38497 14.7327 7.92342 14.3511 8.00035 14.1221C8.00035 13.8167 8.1542 13.5877 8.46189 13.5114L16.7696 10.3816C16.7696 10.3816 17.5389 10.3816 17.6158 10.7633C17.7697 11.145 17.6158 11.5266 17.2312 11.603L10.4619 14.1221L14.2312 15.6488C14.2312 15.6488 14.7696 16.1831 14.6158 16.5648C14.5389 16.7938 14.2312 16.9465 14.0004 16.9465H13.9235Z" fill="white"/>
<path d="M33.3078 5.64895H26.4616C26.4616 5.64895 25.7693 5.3436 25.7693 4.96193C25.7693 4.58025 26.077 4.2749 26.4616 4.2749H33.3078C33.3078 4.2749 34.0001 4.58025 34.0001 4.96193C34.0001 5.3436 33.6924 5.64895 33.3078 5.64895Z" fill="white"/>
<path d="M22.154 5.64883H0.692313C0.692313 5.64883 0 5.34348 0 4.9618C0 4.58012 0.307695 4.27478 0.692313 4.27478H22.154C22.154 4.27478 22.8463 4.58012 22.8463 4.9618C22.8463 5.34348 22.5386 5.64883 22.154 5.64883Z" fill="white"/>
<path d="M16.9236 35.0382C16.9236 35.0382 16.6928 35.0382 16.539 34.9619L8.23121 29.6183C8.23121 29.6183 7.84659 29.0077 8.00044 28.7023C8.23121 28.397 8.61583 28.3206 8.92352 28.4733L16.9236 33.5878L24.9236 28.4733C24.9236 28.4733 25.6929 28.397 25.8467 28.7023C26.0775 29.0077 25.9236 29.4657 25.616 29.6183L17.3082 34.9619C17.3082 34.9619 17.0774 35.0382 16.9236 35.0382Z" fill="white"/>
<path d="M26.3848 40H6.5385C6.5385 40 5.84619 39.6947 5.84619 39.313C5.84619 38.9313 6.15389 38.626 6.5385 38.626H26.3848C26.3848 38.626 27.0771 38.9313 27.0771 39.313C27.0771 39.6947 26.7694 40 26.3848 40Z" fill="white"/>
</svg>
