<svg width="44" height="40" viewBox="0 0 44 40" fill="none" xmlns="http://www.w3.org/2000/svg">
<path d="M40.1252 40.0001H3.78865C1.72211 40.0001 0 38.3159 0 36.2949V11.8738C0 9.85279 1.72211 8.16858 3.78865 8.16858H40.2113C42.2779 8.16858 44 9.85279 44 11.8738V36.2949C44 38.3159 42.2779 40.0001 40.2113 40.0001H40.1252ZM3.78865 10.1054C2.75538 10.1054 1.89432 10.9475 1.89432 11.958V36.3791C1.89432 37.3896 2.75538 38.2317 3.78865 38.2317H40.2113C41.2446 38.2317 42.1057 37.3896 42.1057 36.3791V11.8738C42.1057 10.8633 41.2446 10.0212 40.2113 10.0212H3.78865V10.1054Z" fill="white"/>
<path d="M30.5667 10.1052H13.3456C12.829 10.1052 12.3984 9.68415 12.3984 9.17889V6.31573C12.3984 4.29468 14.1206 2.61047 16.1871 2.61047H27.8114C29.8779 2.61047 31.6 4.29468 31.6 6.31573V9.17889C31.6 9.68415 31.1695 10.1052 30.6529 10.1052H30.5667ZM14.2067 8.25257H29.6196V6.23152C29.6196 5.221 28.7585 4.37889 27.7253 4.37889H16.101C15.0677 4.37889 14.2067 5.221 14.2067 6.23152V8.25257Z" fill="white"/>
<path d="M33.4099 10.1053H10.5058C9.98912 10.1053 9.55859 9.6842 9.55859 9.17894V5.47368C9.55859 2.4421 12.0557 0 15.1555 0H28.7602C31.86 0 34.357 2.4421 34.357 5.47368V9.17894C34.357 9.6842 33.9265 10.1053 33.4099 10.1053ZM11.4529 8.25262H32.5488V5.38947C32.5488 3.36842 30.8267 1.68421 28.7602 1.68421H15.1555C13.0889 1.68421 11.3668 3.36842 11.3668 5.38947V8.25262H11.4529Z" fill="white"/>
<path d="M15.6712 25.0106H8.09389C7.57726 25.0106 7.14673 24.5895 7.14673 24.0843V18.8632C7.14673 18.3579 7.57726 17.9369 8.09389 17.9369H15.6712C16.1878 17.9369 16.6184 18.3579 16.6184 18.8632V24.0843C16.6184 24.5895 16.1878 25.0106 15.6712 25.0106ZM9.04105 23.1579H14.724V19.7895H9.04105V23.1579Z" fill="white"/>
<path d="M35.7332 25.0106H28.1559C27.6393 25.0106 27.2087 24.5895 27.2087 24.0843V18.8632C27.2087 18.3579 27.6393 17.9369 28.1559 17.9369H35.7332C36.2498 17.9369 36.6804 18.3579 36.6804 18.8632V24.0843C36.6804 24.5895 36.2498 25.0106 35.7332 25.0106ZM29.1031 23.1579H34.786V19.7895H29.1031V23.1579Z" fill="white"/>
<path d="M38.9198 21.7263H35.82C35.3033 21.7263 34.8728 21.3053 34.8728 20.8V19.8737H29.1898V20.8C29.1898 21.3053 28.7593 21.7263 28.2427 21.7263H15.6712C15.1546 21.7263 14.7241 21.3053 14.7241 20.8V19.8737H9.04109V20.8C9.04109 21.3053 8.61057 21.7263 8.09393 21.7263H4.99413C2.23875 21.7263 0 19.5369 0 16.8421V11.9579C0 9.93689 1.72211 8.25269 3.78865 8.25269H40.2113C42.2779 8.25269 44 9.93689 44 11.9579V16.8421C44 19.5369 41.7613 21.7263 39.0059 21.7263H38.9198ZM36.7671 19.8737H38.9198C40.6419 19.8737 42.0196 18.5264 42.0196 16.8421V11.9579C42.0196 10.9474 41.1585 10.1053 40.1252 10.1053H3.78865C2.75538 10.1053 1.89432 10.9474 1.89432 11.9579V16.8421C1.89432 18.5264 3.27202 19.8737 4.99413 19.8737H7.14677V18.9474C7.14677 18.4421 7.5773 18.0211 8.09393 18.0211H15.6712C16.1879 18.0211 16.6184 18.4421 16.6184 18.9474V19.8737H27.2955V18.9474C27.2955 18.4421 27.726 18.0211 28.2427 18.0211H35.82C36.3366 18.0211 36.7671 18.4421 36.7671 18.9474V19.8737Z" fill="white"/>
<path d="M8.18001 36.1264H5.33852C4.82189 36.1264 4.39136 35.7054 4.39136 35.2001C4.39136 34.6949 4.82189 34.2738 5.33852 34.2738H8.18001C8.69664 34.2738 9.12717 34.6949 9.12717 35.2001C9.12717 35.7054 8.69664 36.1264 8.18001 36.1264Z" fill="white"/>
<path d="M16.4457 36.1263H12.3126C11.796 36.1263 11.3655 35.7053 11.3655 35.2C11.3655 34.6947 11.796 34.2737 12.3126 34.2737H16.4457C16.9623 34.2737 17.3929 34.6947 17.3929 35.2C17.3929 35.7053 16.9623 36.1263 16.4457 36.1263Z" fill="white"/>
<path d="M23.4205 36.1263H20.579C20.0624 36.1263 19.6318 35.7053 19.6318 35.2C19.6318 34.6947 20.0624 34.2737 20.579 34.2737H23.4205C23.9371 34.2737 24.3676 34.6947 24.3676 35.2C24.3676 35.7053 23.9371 36.1263 23.4205 36.1263Z" fill="white"/>
</svg>
