<svg width="34" height="40" viewBox="0 0 34 40" fill="none" xmlns="http://www.w3.org/2000/svg">
<g clip-path="url(#clip0_3183_308)">
<path d="M16.8702 40C16.8702 40 16.6412 40 16.4886 39.9237L6.33588 33.6641C2.36641 31.2214 0 26.9466 0 22.2137V1.75573C0 0.763359 0.763359 0 1.75573 0H31.9084C32.9008 0 33.6641 0.763359 33.6641 1.75573V22.1374C33.6641 26.7939 31.2977 31.145 27.3282 33.5878L17.1756 39.8473C17.1756 39.8473 16.9466 39.9237 16.7939 39.9237L16.8702 40ZM1.75573 1.37405C1.75573 1.37405 1.37405 1.52672 1.37405 1.75573V22.1374C1.37405 26.3359 3.51145 30.229 7.09924 32.4427L16.8702 38.4733L26.6412 32.4427C30.229 30.229 32.3664 26.3359 32.3664 22.1374V1.75573C32.3664 1.75573 32.2137 1.37405 31.9847 1.37405H1.75573Z" fill="white" fill-opacity="0.9"/>
<path d="M16.7936 21.145C16.7936 21.145 16.2593 20.9923 16.1829 20.7633C16.0303 20.458 16.1829 19.9999 16.4883 19.8473L30.1524 13.4351C30.1524 13.4351 30.9158 13.4351 31.0684 13.7404C31.2211 14.0457 31.0684 14.5038 30.7631 14.6564L17.099 21.0686C17.099 21.0686 16.9463 21.0686 16.7936 21.0686V21.145Z" fill="white" fill-opacity="0.9"/>
<path d="M16.7939 21.145C16.7939 21.145 16.5649 21.145 16.4886 21.145L2.7481 14.6564C2.7481 14.6564 2.36642 14.2748 2.36642 14.0458C2.36642 13.7404 2.5191 13.5114 2.82444 13.4351L16.5649 7.86255C16.5649 7.86255 16.9466 7.86255 17.0993 7.86255L30.8397 13.4351C30.8397 13.4351 31.3741 13.9694 31.2214 14.3511C31.0687 14.7328 30.687 14.8854 30.3054 14.7328L16.7939 9.2366L4.73284 14.1221L17.0993 19.8473C17.0993 19.8473 17.5573 20.3816 17.4046 20.7633C17.2519 20.9923 17.0229 21.145 16.7939 21.145Z" fill="white" fill-opacity="0.9"/>
<path d="M16.7936 28.4732H16.6409C16.1829 28.4732 13.6638 28.4732 11.6791 27.1755C10.7631 26.6411 9.84703 26.2594 8.85466 26.1068C8.54932 26.1068 8.32031 25.8014 8.32031 25.4197V16.8701C8.32031 16.8701 8.62566 16.1831 9.00733 16.1831C9.38901 16.1831 9.69436 16.4885 9.69436 16.8701V24.8854C10.6104 25.1144 11.5264 25.4961 12.4424 26.0304C14.2745 27.1755 16.7173 27.0991 16.7173 27.0991C16.7173 27.0991 19.2363 27.0991 21.0684 26.0304C21.9081 25.4961 22.8241 25.1144 23.8928 24.8854V16.8701C23.8928 16.8701 24.1218 16.1831 24.5035 16.1831C24.8852 16.1831 25.1905 16.4885 25.1905 16.8701V25.4197C25.1905 25.4197 24.9615 26.0304 24.6562 26.1068C23.5875 26.2594 22.6715 26.6411 21.7554 27.1755C19.7707 28.3968 17.2516 28.4732 16.7936 28.4732Z" fill="white" fill-opacity="0.9"/>
<path d="M13.8171 16.9465C13.8171 16.9465 13.6644 16.9465 13.5881 16.9465L8.32093 14.7327C8.32093 14.7327 7.86291 14.3511 7.93925 14.1221C7.93925 13.8167 8.09192 13.5877 8.39726 13.5114L16.6415 10.3816C16.6415 10.3816 17.4049 10.3816 17.4812 10.7633C17.6339 11.145 17.4812 11.5266 17.0996 11.603L10.382 14.1221L14.1225 15.6488C14.1225 15.6488 14.6568 16.1831 14.5041 16.5648C14.4278 16.7938 14.1225 16.9465 13.8934 16.9465H13.8171Z" fill="white" fill-opacity="0.9"/>
<path d="M33.0532 5.64895H26.2593C26.2593 5.64895 25.5723 5.3436 25.5723 4.96193C25.5723 4.58025 25.8776 4.2749 26.2593 4.2749H33.0532C33.0532 4.2749 33.7402 4.58025 33.7402 4.96193C33.7402 5.3436 33.4349 5.64895 33.0532 5.64895Z" fill="white" fill-opacity="0.9"/>
<path d="M21.9847 5.64883H0.687023C0.687023 5.64883 0 5.34348 0 4.9618C0 4.58012 0.305344 4.27478 0.687023 4.27478H21.9847C21.9847 4.27478 22.6718 4.58012 22.6718 4.9618C22.6718 5.34348 22.3664 5.64883 21.9847 5.64883Z" fill="white" fill-opacity="0.9"/>
<path d="M16.7943 35.0382C16.7943 35.0382 16.5653 35.0382 16.4127 34.9619L8.16838 29.6183C8.16838 29.6183 7.7867 29.0077 7.93937 28.7023C8.16838 28.397 8.55005 28.3206 8.8554 28.4733L16.7943 33.5878L24.7333 28.4733C24.7333 28.4733 25.4966 28.397 25.6493 28.7023C25.8783 29.0077 25.7256 29.4657 25.4203 29.6183L17.176 34.9619C17.176 34.9619 16.947 35.0382 16.7943 35.0382Z" fill="white" fill-opacity="0.9"/>
<path d="M26.1832 40H6.48854C6.48854 40 5.80151 39.6947 5.80151 39.313C5.80151 38.9313 6.10686 38.626 6.48854 38.626H26.1832C26.1832 38.626 26.8702 38.9313 26.8702 39.313C26.8702 39.6947 26.5649 40 26.1832 40Z" fill="white" fill-opacity="0.9"/>
</g>
<defs>
<clipPath id="clip0_3183_308">
<rect width="33.6641" height="40" fill="white"/>
</clipPath>
</defs>
</svg>
