<svg width="43" height="40" viewBox="0 0 43 40" fill="none" xmlns="http://www.w3.org/2000/svg">
<g clip-path="url(#clip0_3919_1511)">
<path d="M34.0926 28.6532C29.2339 28.6532 25.2659 24.6532 25.2659 19.7552C25.2659 19.347 25.5898 19.0205 25.9947 19.0205H42.2715C42.2715 19.0205 43.0003 19.347 43.0003 19.7552C43.0003 24.6532 39.0323 28.6532 34.1736 28.6532H34.0926ZM26.7235 20.4899C27.1284 24.245 30.2866 27.2654 34.0926 27.2654C37.8986 27.2654 41.1378 24.3266 41.4617 20.4899H26.7235Z" fill="white"/>
<path d="M40.3276 20.4082H27.9378C27.9378 20.4082 27.4519 20.245 27.2899 20.0817C27.128 19.8368 27.128 19.5919 27.2899 19.347L33.5253 6.69393C33.5253 6.69393 33.9302 6.28577 34.1732 6.28577C34.4161 6.28577 34.74 6.44903 34.821 6.69393L41.0564 19.347C41.0564 19.347 41.1374 19.8368 41.0564 20.0817C40.8944 20.3266 40.7325 20.4082 40.4086 20.4082H40.3276ZM29.0715 18.9388H39.1129L34.0922 8.65311L29.0715 18.9388Z" fill="white"/>
<path d="M8.82674 28.653C3.96799 28.653 0 24.653 0 19.7551C0 19.3469 0.323917 19.0204 0.728814 19.0204H17.0056C17.0056 19.0204 17.7345 19.3469 17.7345 19.7551C17.7345 24.653 13.7665 28.653 8.90772 28.653H8.82674ZM1.45763 20.4081C1.86252 24.1632 5.02072 27.1837 8.82674 27.1837C12.6328 27.1837 15.8719 24.2449 16.1959 20.4081H1.45763Z" fill="white"/>
<path d="M15.0617 20.4081H2.67189C2.67189 20.4081 2.18602 20.2448 2.02406 20.0816C1.8621 19.8367 1.8621 19.5918 2.02406 19.3469L8.25946 6.69381C8.25946 6.69381 8.66436 6.28564 8.9073 6.28564C9.15023 6.28564 9.47415 6.44891 9.55513 6.69381L15.7905 19.3469C15.7905 19.3469 15.8715 19.8367 15.7905 20.0816C15.6286 20.3265 15.4666 20.4081 15.1427 20.4081H15.0617ZM3.8056 18.9387H13.847L8.82632 8.65299L3.8056 18.9387Z" fill="white"/>
<path d="M21.46 28.6531C21.46 28.6531 20.7312 28.3265 20.7312 27.9184V4.73469C20.7312 4.73469 21.0551 4 21.46 4C21.8649 4 22.1888 4.32653 22.1888 4.73469V27.9184C22.1888 27.9184 21.8649 28.6531 21.46 28.6531Z" fill="white"/>
<path d="M37.0885 7.75515H5.91143C5.91143 7.75515 5.18262 7.42862 5.18262 7.02046C5.18262 6.6123 5.50653 6.28577 5.91143 6.28577H37.0885C37.0885 6.28577 37.8173 6.6123 37.8173 7.02046C37.8173 7.42862 37.4934 7.75515 37.0885 7.75515Z" fill="white"/>
<path d="M28.4238 40.0001H14.6573C14.6573 40.0001 13.9285 39.6735 13.9285 39.2654V35.9184C13.9285 35.9184 14.2524 35.1837 14.6573 35.1837H16.5198L18.0584 32.245C18.0584 32.245 18.4633 31.8368 18.7062 31.8368H24.3748C24.3748 31.8368 24.8607 32.0001 25.0226 32.245L26.5612 35.1837H28.4238C28.4238 35.1837 29.1526 35.5103 29.1526 35.9184V39.2654C29.1526 39.2654 28.8287 40.0001 28.4238 40.0001ZM15.3051 38.5307H27.6949V36.6531H26.0754C26.0754 36.6531 25.5895 36.4899 25.4275 36.245L23.8889 33.3062H19.0302L17.4916 36.245C17.4916 36.245 17.0867 36.6531 16.8437 36.6531H15.2241V38.5307H15.3051Z" fill="white"/>
<path d="M23.241 33.3062H19.7588C19.7588 33.3062 19.03 32.9796 19.03 32.5715V27.9184C19.03 27.9184 19.3539 27.1837 19.7588 27.1837H23.241C23.241 27.1837 23.9698 27.5102 23.9698 27.9184V32.5715C23.9698 32.5715 23.6458 33.3062 23.241 33.3062ZM20.4067 31.8368H22.5121V28.5715H20.4067V31.8368Z" fill="white"/>
<path d="M34.5784 39.9999H8.34112C8.34112 39.9999 7.6123 39.6734 7.6123 39.2652C7.6123 38.857 7.93622 38.5305 8.34112 38.5305H34.5784C34.5784 38.5305 35.3072 38.857 35.3072 39.2652C35.3072 39.6734 34.9833 39.9999 34.5784 39.9999Z" fill="white"/>
<path d="M21.4592 5.4693C20.0016 5.4693 18.7869 4.24481 18.7869 2.77542C18.7869 1.30603 20.0016 0.081543 21.4592 0.081543C22.9168 0.081543 24.1315 1.30603 24.1315 2.77542C24.1315 4.24481 22.9168 5.4693 21.4592 5.4693ZM21.4592 1.4693C20.7304 1.4693 20.2445 2.04073 20.2445 2.69379C20.2445 3.34685 20.8113 3.91828 21.4592 3.91828C22.107 3.91828 22.6739 3.34685 22.6739 2.69379C22.6739 2.04073 22.107 1.4693 21.4592 1.4693Z" fill="white"/>
<path d="M20.5684 36.653H16.9244C16.9244 36.653 16.1956 36.3265 16.1956 35.9183C16.1956 35.5101 16.5195 35.1836 16.9244 35.1836H20.5684C20.5684 35.1836 21.2973 35.5101 21.2973 35.9183C21.2973 36.3265 20.9733 36.653 20.5684 36.653Z" fill="white"/>
</g>
<defs>
<clipPath id="clip0_3919_1511">
<rect width="43" height="40" fill="white"/>
</clipPath>
</defs>
</svg>
