<svg width="58" height="40" viewBox="0 0 58 40" fill="none" xmlns="http://www.w3.org/2000/svg">
<path d="M31.5054 39.9999H1.1828C0.537634 39.9999 0 39.4623 0 38.8171V34.7311C0 32.9032 1.39785 31.5053 3.22581 31.5053H3.65591V29.1397C3.65591 28.172 4.4086 27.3118 5.48387 27.3118H27.2043C28.172 27.3118 29.0323 28.172 29.0323 29.1397V31.5053H29.4624C31.1828 31.5053 32.6882 32.9032 32.6882 34.7311V38.8171C32.6882 39.4623 32.1505 39.9999 31.5054 39.9999ZM2.36559 37.6343H30.3226V34.7311C30.3226 34.7311 29.8925 33.8709 29.4624 33.8709H27.8495C27.2043 33.8709 26.6667 33.3333 26.6667 32.6881V29.7849H6.02151V32.6881C6.02151 33.3333 5.48387 33.8709 4.83871 33.8709H3.22581C3.22581 33.8709 2.36559 34.301 2.36559 34.7311V37.6343Z" fill="#ED6835"/>
<path d="M14.0864 33.871H4.83905C4.19388 33.871 3.65625 33.3333 3.65625 32.6882C3.65625 32.043 4.19388 31.5054 4.83905 31.5054H14.0864C14.7315 31.5054 15.2692 32.043 15.2692 32.6882C15.2692 33.3333 14.7315 33.871 14.0864 33.871Z" fill="#ED6835"/>
<path d="M21.0752 23.8709C21.0752 23.8709 20.3226 23.8709 20 23.6558L12.3656 20.8601C11.6129 20.5375 10.9677 19.9999 10.6451 19.2472C10.3226 18.4945 10.215 17.6343 10.6451 16.8816C11.0752 15.8063 12.043 15.0537 13.1183 14.9461L16.6666 5.05366C15.9139 4.19344 15.5914 3.01065 16.0215 1.93538C16.5591 0.322474 18.3871 -0.430214 19.8924 0.10742L27.5269 2.90312C29.1398 3.44075 29.8924 5.26871 29.3548 6.77409C28.9247 7.84936 27.957 8.60204 26.8817 8.70957L23.3333 18.602C24.086 19.4623 24.4086 20.6451 23.9785 21.7203C23.6559 22.473 23.1183 23.1182 22.3656 23.4408C21.9355 23.6558 21.5053 23.7633 21.0752 23.7633V23.8709ZM13.4408 17.3117C13.4408 17.3117 12.9032 17.5268 12.7957 17.7418C12.7957 17.9569 12.7957 18.0644 12.7957 18.2795C12.7957 18.4945 13.0107 18.602 13.2258 18.602L20.8602 21.3977C20.8602 21.3977 21.1828 21.3977 21.3978 21.3977C21.6129 21.3977 21.7204 21.1827 21.7204 20.9676C21.8279 20.6451 21.7204 20.2149 21.3978 20.1074C20.8602 19.8924 20.6451 19.2472 20.8602 18.7096L25.0537 7.20419C25.2688 6.66656 25.8064 6.34398 26.4516 6.45151C26.7742 6.45151 27.2043 6.34398 27.3118 6.0214C27.4193 5.69882 27.3118 5.26871 26.8817 5.16118L19.2473 2.36548C19.2473 2.36548 18.4946 2.36548 18.3871 2.79559C18.2795 3.11817 18.3871 3.54828 18.7096 3.65581C19.2473 3.87086 19.4623 4.51602 19.2473 5.05366L15.0537 16.559C14.8387 17.0967 14.301 17.4192 13.6559 17.3117H13.5484H13.4408Z" fill="#ED6835"/>
<path d="M27.8494 33.871H21.0753C20.4301 33.871 19.8925 33.3333 19.8925 32.6882C19.8925 32.043 20.4301 31.5054 21.0753 31.5054H27.8494C28.4946 31.5054 29.0322 32.043 29.0322 32.6882C29.0322 33.3333 28.4946 33.871 27.8494 33.871Z" fill="#ED6835"/>
<path d="M26.0215 8.81724C26.0215 8.81724 25.8065 8.81724 25.5914 8.81724L17.5269 5.91401C16.8818 5.69896 16.5592 5.0538 16.7742 4.40864C16.9893 3.76348 17.6345 3.44089 18.2796 3.65595L26.3441 6.55917C26.9893 6.77423 27.3119 7.41939 27.0968 8.06455C26.8818 8.49466 26.4517 8.81724 26.0215 8.81724Z" fill="#ED6835"/>
<path d="M21.9357 20.3226C21.9357 20.3226 21.7207 20.3226 21.5056 20.3226L13.4411 17.4194C12.7959 17.2043 12.4734 16.5592 12.6884 15.914C12.9035 15.2688 13.5486 14.9463 14.1938 15.1613L22.2583 18.0645C22.9035 18.2796 23.2261 18.9248 23.011 19.5699C22.7959 20 22.3658 20.3226 21.9357 20.3226Z" fill="#ED6835"/>
<path d="M51.6126 26.129C51.6126 26.129 51.29 26.129 51.1825 26.129L23.0104 15.9139C22.3653 15.6989 22.0427 15.0537 22.2578 14.4086L23.333 11.5053C23.333 11.5053 23.6556 10.9677 23.9782 10.8602C24.3008 10.7527 24.6233 10.7527 24.8384 10.8602L53.0104 21.0752C53.6556 21.2903 53.9782 21.9355 53.7631 22.5806L52.6879 25.4838C52.6879 25.4838 52.3653 26.0215 52.0427 26.129C51.9352 26.129 51.7201 26.2365 51.5051 26.2365L51.6126 26.129ZM24.9459 14.086L50.8599 23.4408L51.075 22.7957L25.161 13.4408L24.9459 14.086Z" fill="#ED6835"/>
<path d="M53.5481 28.387C53.5481 28.387 52.7954 28.387 52.4729 28.172C51.7202 27.8494 51.075 27.3117 50.7524 26.5591C50.4299 25.8064 50.3223 24.9462 50.7524 24.1935L51.5051 22.0429C51.8277 21.2902 52.3653 20.6451 53.118 20.3225C53.8707 19.9999 54.7309 19.8924 55.4836 20.3225C56.2363 20.6451 56.8815 21.1827 57.2041 21.9354C57.5266 22.6881 57.6342 23.5483 57.2041 24.301L56.4514 26.4515C56.1288 27.2042 55.5911 27.8494 54.8385 28.172C54.4083 28.387 53.9782 28.4945 53.5481 28.4945V28.387ZM54.3008 22.473C54.3008 22.473 54.0858 22.473 53.9782 22.473C53.7632 22.473 53.6557 22.6881 53.6557 22.9031L52.903 25.0537C52.903 25.0537 52.903 25.8064 53.3331 26.0214C53.5481 26.0214 53.6557 26.0214 53.8707 26.0214C54.0858 26.0214 54.1933 25.8064 54.1933 25.5913L54.946 23.4408C54.946 23.4408 54.946 22.6881 54.5159 22.473H54.3008Z" fill="#ED6835"/>
</svg>
