<svg width="40" height="40" viewBox="0 0 40 40" fill="none" xmlns="http://www.w3.org/2000/svg">
<g clip-path="url(#clip0_3183_242)">
<path d="M33.109 40H26.5921C26.5921 40 25.918 39.7004 25.918 39.3259V38.3521C25.918 36.8539 27.1914 35.5805 28.6895 35.5805H28.9891V17.7528C28.9891 17.7528 29.2888 17.0787 29.6633 17.0787C30.0378 17.0787 30.3374 17.3783 30.3374 17.7528V36.2547C30.3374 36.2547 30.0378 36.9288 29.6633 36.9288H28.6895C27.8655 36.9288 27.2663 37.603 27.2663 38.3521V38.6517H32.4348V25.3933C32.4348 25.3933 32.7344 24.7191 33.109 24.7191C33.4835 24.7191 34.0828 24.2697 34.0828 23.5955V12.809C34.0828 11.9101 33.3337 11.1611 32.4348 11.1611H30.5622C30.5622 11.1611 30.3374 11.236 30.3374 11.3858V13.4082C30.3374 13.4082 30.0378 14.0824 29.6633 14.0824C29.2888 14.0824 28.9891 13.7828 28.9891 13.4082V11.3858C28.9891 10.4869 29.6633 9.81274 30.5622 9.81274H32.4348C34.0828 9.81274 35.4311 11.1611 35.4311 12.809V23.5955C35.4311 24.6442 34.7569 25.618 33.7831 25.9176V39.2509C33.7831 39.2509 33.4835 39.9251 33.109 39.9251V40Z" fill="white" fill-opacity="0.9"/>
<path d="M31.8352 8.38951C29.5131 8.38951 27.6404 6.51685 27.6404 4.19476C27.6404 1.87266 29.5131 0 31.8352 0C34.1573 0 36.03 1.87266 36.03 4.19476C36.03 6.51685 34.1573 8.38951 31.8352 8.38951ZM31.8352 1.34831C30.2622 1.34831 28.9888 2.62172 28.9888 4.19476C28.9888 5.76779 30.2622 7.0412 31.8352 7.0412C33.4082 7.0412 34.6816 5.76779 34.6816 4.19476C34.6816 2.62172 33.4082 1.34831 31.8352 1.34831Z" fill="white" fill-opacity="0.9"/>
<path d="M7.79028 8.38951C5.46818 8.38951 3.59552 6.51685 3.59552 4.19476C3.59552 1.87266 5.46818 0 7.79028 0C10.1124 0 11.985 1.87266 11.985 4.19476C11.985 6.51685 10.1124 8.38951 7.79028 8.38951ZM7.79028 1.34831C6.21724 1.34831 4.94383 2.62172 4.94383 4.19476C4.94383 5.76779 6.21724 7.0412 7.79028 7.0412C9.36331 7.0412 10.6367 5.76779 10.6367 4.19476C10.6367 2.62172 9.36331 1.34831 7.79028 1.34831Z" fill="white" fill-opacity="0.9"/>
<path d="M26.5921 20.5992H22.5472C22.5472 20.5992 21.873 20.2996 21.873 19.925C21.873 19.5505 22.1727 19.2509 22.5472 19.2509H26.5921C26.5921 19.2509 27.0416 19.176 27.1914 19.0262L30.8618 15.8052C30.8618 15.8052 31.536 15.5805 31.8356 15.8052C32.0603 16.1048 32.0603 16.4794 31.8356 16.779L28.1652 20C27.7157 20.3745 27.1914 20.5992 26.6671 20.5992H26.5921Z" fill="white" fill-opacity="0.9"/>
<path d="M25.9934 17.3035H24.1956C24.1956 17.3035 23.5215 17.0038 23.5215 16.6293C23.5215 16.2548 23.8211 15.9551 24.1956 15.9551H25.7687L29.6638 12.5095C29.6638 12.5095 30.4129 11.9851 30.8623 11.9851C31.2368 11.9851 31.5365 12.2098 31.6114 12.5844C31.6114 12.9589 31.3867 13.2585 31.0121 13.3334C30.7874 13.3334 30.6376 13.4083 30.4878 13.5581L26.3679 17.1536C26.3679 17.1536 26.0683 17.3035 25.9185 17.3035H25.9934Z" fill="white" fill-opacity="0.9"/>
<path d="M13.0343 40.0001H6.51741C6.51741 40.0001 5.84325 39.7004 5.84325 39.3259V25.9926C4.94438 25.6929 4.19531 24.7192 4.19531 23.6705V12.8839C4.19531 11.236 5.54363 9.8877 7.19157 9.8877H9.06423C9.9631 9.8877 10.6373 10.5619 10.6373 11.4607V13.4832C10.6373 13.4832 10.3376 14.1574 9.9631 14.1574C9.58857 14.1574 9.28895 13.8577 9.28895 13.4832V11.4607C9.28895 11.4607 9.21404 11.236 9.06423 11.236H7.19157C6.29269 11.236 5.54363 11.9851 5.54363 12.8839V23.6705C5.54363 24.3446 6.14288 24.7941 6.51741 24.7941C6.89194 24.7941 7.19157 25.0937 7.19157 25.4682V38.7266H12.3601V38.427C12.3601 37.6031 11.6859 37.0038 10.9369 37.0038H9.9631C9.9631 37.0038 9.28895 36.7042 9.28895 36.3296V17.8278C9.28895 17.8278 9.58857 17.1536 9.9631 17.1536C10.3376 17.1536 10.6373 17.4532 10.6373 17.8278V35.6555H10.9369C12.435 35.6555 13.7084 36.9289 13.7084 38.427V39.4008C13.7084 39.4008 13.4088 40.075 13.0343 40.075V40.0001Z" fill="white" fill-opacity="0.9"/>
<path d="M19.1752 20.5993H12.958C12.4336 20.5993 11.8344 20.3746 11.4598 20.0001L7.78942 16.7791C7.78942 16.7791 7.48979 16.105 7.78942 15.8053C8.01414 15.5057 8.46357 15.5057 8.7632 15.8053L12.4336 19.0263C12.4336 19.0263 12.8081 19.251 13.0329 19.251H19.2501C19.7744 19.251 20.2239 18.8016 20.2239 18.2772C20.2239 17.7529 19.7744 17.3035 19.2501 17.3035H13.6321C13.6321 17.3035 13.3325 17.3035 13.1827 17.1536L9.06283 13.5581C9.06283 13.5581 8.7632 13.3334 8.53848 13.3334C8.16395 13.3334 7.93923 12.9589 7.93923 12.5844C7.93923 12.2098 8.31376 11.9851 8.68829 11.9851C9.13773 11.9851 9.58717 12.2098 9.8868 12.5095L13.7819 15.9551H19.1003C20.3737 15.9551 21.4224 17.0038 21.4224 18.2772C21.4224 19.5507 20.3737 20.5993 19.1003 20.5993H19.1752Z" fill="white" fill-opacity="0.9"/>
<path d="M35.8053 40.0001H3.67043C3.67043 40.0001 2.99628 39.7004 2.99628 39.3259C2.99628 38.9514 3.2959 38.6517 3.67043 38.6517H35.8053C35.8053 38.6517 36.4794 38.9514 36.4794 39.3259C36.4794 39.7004 36.1798 40.0001 35.8053 40.0001Z" fill="white" fill-opacity="0.9"/>
<path d="M2.3221 17.3034H0.674157C0.674157 17.3034 0 17.0038 0 16.6292C0 16.2547 0.299625 15.9551 0.674157 15.9551H2.3221C2.3221 15.9551 2.99625 16.2547 2.99625 16.6292C2.99625 17.0038 2.69663 17.3034 2.3221 17.3034Z" fill="white" fill-opacity="0.9"/>
<path d="M2.3221 22.0973H0.674157C0.674157 22.0973 0 21.7977 0 21.4232C0 21.0486 0.299625 20.749 0.674157 20.749H2.3221C2.3221 20.749 2.99625 21.0486 2.99625 21.4232C2.99625 21.7977 2.69663 22.0973 2.3221 22.0973Z" fill="white" fill-opacity="0.9"/>
<path d="M2.3221 26.8914H0.674157C0.674157 26.8914 0 26.5918 0 26.2172C0 25.8427 0.299625 25.5431 0.674157 25.5431H2.3221C2.3221 25.5431 2.99625 25.8427 2.99625 26.2172C2.99625 26.5918 2.69663 26.8914 2.3221 26.8914Z" fill="white" fill-opacity="0.9"/>
<path d="M38.951 17.3034H37.3031C37.3031 17.3034 36.6289 17.0038 36.6289 16.6292C36.6289 16.2547 36.9285 15.9551 37.3031 15.9551H38.951C38.951 15.9551 39.6252 16.2547 39.6252 16.6292C39.6252 17.0038 39.3255 17.3034 38.951 17.3034Z" fill="white" fill-opacity="0.9"/>
<path d="M38.951 22.0973H37.3031C37.3031 22.0973 36.6289 21.7977 36.6289 21.4232C36.6289 21.0486 36.9285 20.749 37.3031 20.749H38.951C38.951 20.749 39.6252 21.0486 39.6252 21.4232C39.6252 21.7977 39.3255 22.0973 38.951 22.0973Z" fill="white" fill-opacity="0.9"/>
<path d="M38.951 26.8913H37.3031C37.3031 26.8913 36.6289 26.5917 36.6289 26.2171C36.6289 25.8426 36.9285 25.543 37.3031 25.543H38.951C38.951 25.543 39.6252 25.8426 39.6252 26.2171C39.6252 26.5917 39.3255 26.8913 38.951 26.8913Z" fill="white" fill-opacity="0.9"/>
<path d="M19.7756 17.3034C19.7756 17.3034 19.6258 17.3034 19.4759 17.3034L16.4048 15.955C14.1576 14.9813 12.7344 12.809 12.7344 10.412V3.29586C12.7344 3.29586 13.034 2.62171 13.4085 2.62171C15.1314 2.62171 16.8542 2.24717 18.4273 1.49811L19.401 1.04867C19.401 1.04867 19.7756 0.973766 19.9254 1.04867L20.8992 1.49811C22.4722 2.24717 24.195 2.62171 25.9179 2.62171C26.2924 2.62171 26.5921 2.92133 26.5921 3.29586V10.3371C26.5921 12.7341 25.1688 14.9064 22.9216 15.8801L19.8505 17.2284C19.8505 17.2284 19.7007 17.2284 19.5509 17.2284L19.7756 17.3034ZM14.1576 3.89511V10.2622C14.1576 12.1348 15.2812 13.8577 17.004 14.6067L19.7756 15.8052L22.5471 14.6067C24.27 13.8577 25.3936 12.1348 25.3936 10.2622V3.89511C23.6707 3.82021 22.0228 3.37077 20.4497 2.69661L19.7007 2.39699L18.9516 2.69661C17.3786 3.37077 15.7306 3.82021 14.0078 3.89511H14.1576Z" fill="white" fill-opacity="0.9"/>
<path d="M23.1469 13.2585H16.3304C16.3304 13.2585 15.6562 12.9589 15.6562 12.5844V4.94393C15.6562 4.94393 15.9559 4.26978 16.3304 4.26978H21.2742C21.2742 4.26978 21.9484 4.5694 21.9484 4.94393C21.9484 5.31846 21.6488 5.61809 21.2742 5.61809H17.0046V11.9851H22.4727V6.81659C22.4727 6.81659 22.7724 6.14243 23.1469 6.14243C23.5214 6.14243 23.821 6.44206 23.821 6.81659V12.6593C23.821 12.6593 23.5214 13.3334 23.1469 13.3334V13.2585Z" fill="white" fill-opacity="0.9"/>
<path d="M21.2738 7.4158C21.2738 7.4158 20.5996 7.11617 20.5996 6.74164V4.86898C20.5996 4.86898 20.8992 4.19482 21.2738 4.19482C21.6483 4.19482 21.9479 4.49445 21.9479 4.86898V6.74164C21.9479 6.74164 21.6483 7.4158 21.2738 7.4158Z" fill="white" fill-opacity="0.9"/>
<path d="M23.1464 7.4157H21.2738C21.2738 7.4157 20.5996 7.11607 20.5996 6.74154C20.5996 6.36701 20.8992 6.06738 21.2738 6.06738H23.1464C23.1464 6.06738 23.8206 6.36701 23.8206 6.74154C23.8206 7.11607 23.521 7.4157 23.1464 7.4157Z" fill="white" fill-opacity="0.9"/>
<path d="M20.4497 11.1611H18.7269C18.7269 11.1611 18.0527 10.8614 18.0527 10.4869C18.0527 10.1124 18.3524 9.81274 18.7269 9.81274H20.4497C20.4497 9.81274 21.1239 10.1124 21.1239 10.4869C21.1239 10.8614 20.8243 11.1611 20.4497 11.1611Z" fill="white" fill-opacity="0.9"/>
<path d="M20.4497 9.21355H18.7269C18.7269 9.21355 18.0527 8.91392 18.0527 8.53939C18.0527 8.16486 18.3524 7.86523 18.7269 7.86523H20.4497C20.4497 7.86523 21.1239 8.16486 21.1239 8.53939C21.1239 8.91392 20.8243 9.21355 20.4497 9.21355Z" fill="white" fill-opacity="0.9"/>
<path d="M24.4947 24.4943H14.682C14.682 24.4943 14.0078 24.1947 14.0078 23.8202C14.0078 23.4456 14.3074 23.146 14.682 23.146H24.4947C24.4947 23.146 25.1689 23.4456 25.1689 23.8202C25.1689 24.1947 24.8692 24.4943 24.4947 24.4943Z" fill="white" fill-opacity="0.9"/>
<path d="M24.4947 28.3146H14.682C14.682 28.3146 14.0078 28.015 14.0078 27.6405C14.0078 27.2659 14.3074 26.9663 14.682 26.9663H24.4947C24.4947 26.9663 25.1689 27.2659 25.1689 27.6405C25.1689 28.015 24.8692 28.3146 24.4947 28.3146Z" fill="white" fill-opacity="0.9"/>
<path d="M24.4947 32.06H14.682C14.682 32.06 14.0078 31.7604 14.0078 31.3858C14.0078 31.0113 14.3074 30.7117 14.682 30.7117H24.4947C24.4947 30.7117 25.1689 31.0113 25.1689 31.3858C25.1689 31.7604 24.8692 32.06 24.4947 32.06Z" fill="white" fill-opacity="0.9"/>
</g>
<defs>
<clipPath id="clip0_3183_242">
<rect width="39.6255" height="40" fill="white"/>
</clipPath>
</defs>
</svg>
