<svg width="44" height="40" viewBox="0 0 44 40" fill="none" xmlns="http://www.w3.org/2000/svg">
<g clip-path="url(#clip0_3351_114)">
<path d="M34.3677 28.6532C29.4697 28.6532 25.4697 24.6532 25.4697 19.7552C25.4697 19.347 25.7963 19.0205 26.2044 19.0205H42.6126C42.6126 19.0205 43.3473 19.347 43.3473 19.7552C43.3473 24.6532 39.3473 28.6532 34.4493 28.6532H34.3677ZM26.9391 20.4899C27.3473 24.245 30.531 27.2654 34.3677 27.2654C38.2044 27.2654 41.4697 24.3266 41.7963 20.4899H26.9391Z" fill="#EB5E28"/>
<path d="M40.653 20.4081H28.1632C28.1632 20.4081 27.6734 20.2448 27.5101 20.0816C27.3469 19.8367 27.3469 19.5918 27.5101 19.3469L33.7959 6.69381C33.7959 6.69381 34.204 6.28564 34.4489 6.28564C34.6938 6.28564 35.0204 6.44891 35.102 6.69381L41.3877 19.3469C41.3877 19.3469 41.4693 19.8367 41.3877 20.0816C41.2244 20.3265 41.0612 20.4081 40.7346 20.4081H40.653ZM29.3061 18.9387H39.4285L34.3673 8.65299L29.3061 18.9387Z" fill="#EB5E28"/>
<path d="M8.89796 28.6532C4 28.6532 0 24.6532 0 19.7552C0 19.347 0.326531 19.0205 0.734694 19.0205H17.1429C17.1429 19.0205 17.8776 19.347 17.8776 19.7552C17.8776 24.6532 13.8776 28.6532 8.97959 28.6532H8.89796ZM1.46939 20.4083C1.87755 24.1634 5.06122 27.1838 8.89796 27.1838C12.7347 27.1838 16 24.245 16.3265 20.4083H1.46939Z" fill="#EB5E28"/>
<path d="M15.1833 20.4081H2.69348C2.69348 20.4081 2.20368 20.2448 2.04042 20.0816C1.87715 19.8367 1.87715 19.5918 2.04042 19.3469L8.32613 6.69381C8.32613 6.69381 8.7343 6.28564 8.97919 6.28564C9.22409 6.28564 9.55062 6.44891 9.63225 6.69381L15.918 19.3469C15.918 19.3469 15.9996 19.8367 15.918 20.0816C15.7547 20.3265 15.5914 20.4081 15.2649 20.4081H15.1833ZM3.83634 18.9387H13.9588L8.89756 8.65299L3.83634 18.9387Z" fill="#EB5E28"/>
<path d="M21.6331 28.6531C21.6331 28.6531 20.8984 28.3265 20.8984 27.9184V4.73469C20.8984 4.73469 21.225 4 21.6331 4C22.0413 4 22.3678 4.32653 22.3678 4.73469V27.9184C22.3678 27.9184 22.0413 28.6531 21.6331 28.6531Z" fill="#EB5E28"/>
<path d="M37.3878 7.75503H5.95918C5.95918 7.75503 5.22449 7.4285 5.22449 7.02034C5.22449 6.61218 5.55102 6.28564 5.95918 6.28564H37.3878C37.3878 6.28564 38.1224 6.61218 38.1224 7.02034C38.1224 7.4285 37.7959 7.75503 37.3878 7.75503Z" fill="#EB5E28"/>
<path d="M28.653 39.9999H14.7755C14.7755 39.9999 14.0408 39.6734 14.0408 39.2652V35.9183C14.0408 35.9183 14.3673 35.1836 14.7755 35.1836H16.653L18.204 32.2448C18.204 32.2448 18.6122 31.8367 18.8571 31.8367H24.5714C24.5714 31.8367 25.0612 31.9999 25.2244 32.2448L26.7755 35.1836H28.653C28.653 35.1836 29.3877 35.5101 29.3877 35.9183V39.2652C29.3877 39.2652 29.0612 39.9999 28.653 39.9999ZM15.4285 38.5305H27.9183V36.653H26.2857C26.2857 36.653 25.7959 36.4897 25.6326 36.2448L24.0816 33.3061H19.1836L17.6326 36.2448C17.6326 36.2448 17.2244 36.653 16.9795 36.653H15.3469V38.5305H15.4285Z" fill="#EB5E28"/>
<path d="M23.4286 33.306H19.9184C19.9184 33.306 19.1837 32.9795 19.1837 32.5713V27.9183C19.1837 27.9183 19.5102 27.1836 19.9184 27.1836H23.4286C23.4286 27.1836 24.1633 27.5101 24.1633 27.9183V32.5713C24.1633 32.5713 23.8368 33.306 23.4286 33.306ZM20.5715 31.8367H22.6939V28.5713H20.5715V31.8367Z" fill="#EB5E28"/>
<path d="M34.8575 39.9999H8.40852C8.40852 39.9999 7.67383 39.6734 7.67383 39.2652C7.67383 38.857 8.00036 38.5305 8.40852 38.5305H34.8575C34.8575 38.5305 35.5922 38.857 35.5922 39.2652C35.5922 39.6734 35.2657 39.9999 34.8575 39.9999Z" fill="#EB5E28"/>
<path d="M21.6324 5.4693C20.163 5.4693 18.9385 4.24481 18.9385 2.77542C18.9385 1.30603 20.163 0.081543 21.6324 0.081543C23.1017 0.081543 24.3262 1.30603 24.3262 2.77542C24.3262 4.24481 23.1017 5.4693 21.6324 5.4693ZM21.6324 1.4693C20.8977 1.4693 20.4079 2.04073 20.4079 2.69379C20.4079 3.34685 20.9793 3.91828 21.6324 3.91828C22.2854 3.91828 22.8568 3.34685 22.8568 2.69379C22.8568 2.04073 22.2854 1.4693 21.6324 1.4693Z" fill="#EB5E28"/>
<path d="M20.7343 36.653H17.0609C17.0609 36.653 16.3262 36.3265 16.3262 35.9183C16.3262 35.5101 16.6527 35.1836 17.0609 35.1836H20.7343C20.7343 35.1836 21.469 35.5101 21.469 35.9183C21.469 36.3265 21.1425 36.653 20.7343 36.653Z" fill="#EB5E28"/>
</g>
<defs>
<clipPath id="clip0_3351_114">
<rect width="43.3469" height="40" fill="white"/>
</clipPath>
</defs>
</svg>
