<svg width="44" height="40" viewBox="0 0 44 40" fill="none" xmlns="http://www.w3.org/2000/svg">
<g clip-path="url(#clip0_3183_166)">
<path d="M39.9037 40H3.76773C1.71261 40 0 38.3194 0 36.3026V11.9328C0 9.91602 1.71261 8.23535 3.76773 8.23535H39.9894C42.0445 8.23535 43.7571 9.91602 43.7571 11.9328V36.3026C43.7571 38.3194 42.0445 40 39.9894 40H39.9037ZM3.76773 10.1681C2.74017 10.1681 1.88387 11.0085 1.88387 12.0169V36.3866C1.88387 37.395 2.74017 38.2353 3.76773 38.2353H39.9894C41.0169 38.2353 41.8732 37.395 41.8732 36.3866V11.9328C41.8732 10.9244 41.0169 10.0841 39.9894 10.0841H3.76773V10.1681Z" fill="white" fill-opacity="0.9"/>
<path d="M30.3981 10.168H13.272C12.7582 10.168 12.3301 9.74779 12.3301 9.24359V6.38645C12.3301 4.36964 14.0427 2.68896 16.0978 2.68896H27.6579C29.713 2.68896 31.4257 4.36964 31.4257 6.38645V9.24359C31.4257 9.74779 30.9975 10.168 30.4837 10.168H30.3981ZM14.1283 8.31922H29.4562V6.30241C29.4562 5.29401 28.5999 4.45367 27.5723 4.45367H16.0122C14.9846 4.45367 14.1283 5.29401 14.1283 6.30241V8.31922Z" fill="white" fill-opacity="0.9"/>
<path d="M33.2255 10.168H10.4478C9.93401 10.168 9.50586 9.74785 9.50586 9.24365V5.54617C9.50586 2.52096 11.9891 0.0839844 15.0718 0.0839844H28.6014C31.6841 0.0839844 34.1674 2.52096 34.1674 5.54617V9.24365C34.1674 9.74785 33.7392 10.168 33.2255 10.168ZM11.3897 8.31928H32.3692V5.46214C32.3692 3.44533 30.6565 1.76466 28.6014 1.76466H15.0718C13.0167 1.76466 11.3041 3.44533 11.3041 5.46214V8.31928H11.3897Z" fill="white" fill-opacity="0.9"/>
<path d="M15.5847 25.042H8.04923C7.53545 25.042 7.1073 24.6218 7.1073 24.1176V18.9075C7.1073 18.4033 7.53545 17.9832 8.04923 17.9832H15.5847C16.0985 17.9832 16.5266 18.4033 16.5266 18.9075V24.1176C16.5266 24.6218 16.0985 25.042 15.5847 25.042ZM8.99117 23.1932H14.6428V19.8319H8.99117V23.1932Z" fill="white" fill-opacity="0.9"/>
<path d="M35.536 25.042H28.0005C27.4867 25.042 27.0586 24.6218 27.0586 24.1176V18.9075C27.0586 18.4033 27.4867 17.9832 28.0005 17.9832H35.536C36.0498 17.9832 36.4779 18.4033 36.4779 18.9075V24.1176C36.4779 24.6218 36.0498 25.042 35.536 25.042ZM28.9425 23.1932H34.5941V19.8319H28.9425V23.1932Z" fill="white" fill-opacity="0.9"/>
<path d="M38.7049 21.7647H35.6222C35.1084 21.7647 34.6803 21.3445 34.6803 20.8403V19.916H29.0287V20.8403C29.0287 21.3445 28.6005 21.7647 28.0867 21.7647H15.5847C15.0709 21.7647 14.6428 21.3445 14.6428 20.8403V19.916H8.99118V20.8403C8.99118 21.3445 8.56303 21.7647 8.04925 21.7647H4.96656C2.22639 21.7647 0 19.5798 0 16.8908V12.0168C0 10 1.71261 8.31934 3.76773 8.31934H39.9894C42.0445 8.31934 43.7571 10 43.7571 12.0168V16.8908C43.7571 19.5798 41.5307 21.7647 38.7905 21.7647H38.7049ZM36.5641 19.916H38.7049C40.4175 19.916 41.7876 18.5714 41.7876 16.8908V12.0168C41.7876 11.0084 40.9313 10.1681 39.9037 10.1681H3.76773C2.74017 10.1681 1.88387 11.0084 1.88387 12.0168V16.8908C1.88387 18.5714 3.25395 19.916 4.96656 19.916H7.10732V18.9916C7.10732 18.4874 7.53547 18.0672 8.04925 18.0672H15.5847C16.0985 18.0672 16.5267 18.4874 16.5267 18.9916V19.916H27.1448V18.9916C27.1448 18.4874 27.573 18.0672 28.0867 18.0672H35.6222C36.136 18.0672 36.5641 18.4874 36.5641 18.9916V19.916Z" fill="white" fill-opacity="0.9"/>
<path d="M8.13486 36.1345H5.30906C4.79528 36.1345 4.36713 35.7143 4.36713 35.2101C4.36713 34.7059 4.79528 34.2858 5.30906 34.2858H8.13486C8.64864 34.2858 9.07679 34.7059 9.07679 35.2101C9.07679 35.7143 8.64864 36.1345 8.13486 36.1345Z" fill="white" fill-opacity="0.9"/>
<path d="M16.3549 36.1344H12.2447C11.7309 36.1344 11.3027 35.7142 11.3027 35.21C11.3027 34.7058 11.7309 34.2856 12.2447 34.2856H16.3549C16.8687 34.2856 17.2969 34.7058 17.2969 35.21C17.2969 35.7142 16.8687 36.1344 16.3549 36.1344Z" fill="white" fill-opacity="0.9"/>
<path d="M23.2912 36.1344H20.4654C19.9516 36.1344 19.5234 35.7142 19.5234 35.21C19.5234 34.7058 19.9516 34.2856 20.4654 34.2856H23.2912C23.805 34.2856 24.2331 34.7058 24.2331 35.21C24.2331 35.7142 23.805 36.1344 23.2912 36.1344Z" fill="white" fill-opacity="0.9"/>
</g>
<defs>
<clipPath id="clip0_3183_166">
<rect width="43.6715" height="40" fill="white"/>
</clipPath>
</defs>
</svg>
