<svg width="171" height="56" viewBox="0 0 171 56" fill="none" xmlns="http://www.w3.org/2000/svg">
<g clip-path="url(#clip0_3919_2189)">
<path d="M26.4882 56L25.0453 55.1588C21.8255 53.4382 -5.6254 37.7692 1.03593 7.46105L1.19654 6.72438L1.93584 6.87477C13.0381 9.14087 23.8828 2.58728 25.9605 0.53275L26.4984 0L27.0363 0.535299C29.1089 2.59493 39.9358 9.15617 51.0558 6.87732L51.7951 6.72693L51.9557 7.4636C53.5032 14.5092 53.3222 21.31 51.4204 27.6801C49.8704 32.8725 47.1707 37.8074 43.3977 42.3498C40.3895 45.9695 35.1074 51.2281 27.0133 55.7094L26.4856 56.0025L26.4882 56ZM2.37687 8.51381C-3.45594 37.2874 22.7484 52.1968 25.7795 53.8154L25.805 53.8307L26.506 54.2411C34.261 49.9026 39.329 44.8555 42.225 41.371C50.2579 31.6999 53.08 20.6498 50.6173 8.51636C49.1413 8.77126 47.6729 8.88597 46.2325 8.88597C37.2564 8.88597 29.3077 4.46338 26.4958 2.10806C23.6789 4.46083 15.7123 8.88087 6.73618 8.88342C5.30347 8.88342 3.84272 8.77126 2.37432 8.51891L2.37687 8.51381Z" fill="#ED6835"/>
<path d="M16.1703 21.0732V22.7505H20.4225V48.5035C20.9681 48.9113 21.5289 49.3115 22.1 49.7066C23.3007 50.5376 26.4975 52.4876 26.4975 52.4876C26.4975 52.4876 29.6944 50.5376 30.8951 49.7066C31.4661 49.3115 32.0244 48.9113 32.5725 48.5035V22.7505H36.8248V21.0732H16.1703ZM30.8951 47.9299C30.5178 48.2001 29.906 48.608 29.2559 49.0311V37.3412H27.5988V50.0992C26.9615 50.507 26.4975 50.7976 26.4975 50.7976C26.4975 50.7976 26.0336 50.5045 25.3962 50.0992V37.3412H23.7392V49.0311C23.0891 48.608 22.4773 48.2001 22.1 47.9299V22.748H30.8951V47.9299Z" fill="#ED6835"/>
<path d="M25.3962 35.3908V27.0835C25.3962 26.4768 25.8907 25.9823 26.4975 25.9823C27.1042 25.9823 27.5988 26.4768 27.5988 27.0835V35.3908H29.2558V27.0835C29.2558 25.5617 28.0169 24.3254 26.4975 24.3254C24.9781 24.3254 23.7391 25.5643 23.7391 27.0835V35.3908H25.3962Z" fill="#ED6835"/>
<path d="M49.4057 10.9328C49.3955 10.8742 49.3878 10.8308 49.3827 10.8079L49.2807 10.1171L48.5848 10.191C36.5266 11.4681 27.0329 4.34608 26.9386 4.27471L26.495 3.93823L26.0514 4.27471C25.9571 4.34608 16.4584 11.4681 4.40525 10.191L3.70929 10.1171L3.60731 10.8079C3.60476 10.8308 3.59712 10.8742 3.58437 10.9328C3.07706 13.7419 2.52641 19.5052 4.53271 26.5381C5.85326 31.1646 8.07115 35.5183 11.1278 39.4821C12.8333 41.6921 14.8064 43.7849 17.032 45.7528C17.5775 46.2345 18.1333 46.7087 18.7094 47.1751V24.6569H17.032V43.8053C11.5535 38.7072 7.83662 32.796 5.93483 26.1404C4.07894 19.6353 4.54546 14.1803 4.93295 11.7077C5.76658 11.7765 6.58746 11.8097 7.39304 11.8097C17.162 11.8097 24.6213 7.06591 26.4925 5.75825C28.5166 7.17552 37.09 12.6177 48.052 11.7103C48.4395 14.1828 48.9085 19.6378 47.0501 26.143C45.1509 32.7985 41.4314 38.7098 35.953 43.8078V24.6594H34.2755V47.1777C34.8491 46.7112 35.4074 46.2371 35.953 45.7553C38.1785 43.7874 40.1517 41.6947 41.8572 39.4847C44.9112 35.5234 47.1317 31.1671 48.4522 26.5406C50.4585 19.5103 49.9079 13.747 49.4006 10.9354L49.4057 10.9328Z" fill="#ED6835"/>
<path d="M12.6191 13.4333V15.1642C12.6191 17.3691 14.4113 19.1611 16.6165 19.1611H36.3813C38.5864 19.1611 40.3786 17.3691 40.3786 15.1642V13.5583H38.7011V15.1642C38.7011 16.4438 37.661 17.4838 36.3813 17.4838H16.6165C15.3367 17.4838 14.2966 16.4438 14.2966 15.1642V13.4333H12.6191Z" fill="#ED6835"/>
<path d="M36.8248 13.9688H16.1703V15.646H36.8248V13.9688Z" fill="#ED6835"/>
</g>
<path d="M78.0664 29H64.668V8.49219H68.8789V25.3223H78.0664V29ZM80.3086 29V8.49219H93.543V12.1699H84.5195V16.832H92.9824V20.5234H84.5195V25.3223H93.6797V29H80.3086ZM111.562 13.6465C110.961 13.0449 110.241 12.5801 109.402 12.252C108.573 11.9238 107.684 11.7598 106.736 11.7598C105.788 11.7598 104.923 11.9238 104.139 12.252C103.355 12.5801 102.68 13.0495 102.115 13.6602C101.55 14.2708 101.113 15 100.803 15.8477C100.493 16.6862 100.338 17.625 100.338 18.6641C100.338 19.7031 100.493 20.6556 100.803 21.5215C101.122 22.3874 101.568 23.1348 102.143 23.7637C102.726 24.3835 103.414 24.8665 104.207 25.2129C105.009 25.5592 105.893 25.7324 106.859 25.7324C107.661 25.7324 108.395 25.6094 109.061 25.3633C109.735 25.1172 110.327 24.7663 110.838 24.3105C111.348 23.8548 111.768 23.3034 112.096 22.6562C112.433 22.0091 112.665 21.2845 112.793 20.4824H106.846V17.2695H116.498L116.621 18.8555C116.621 20.4141 116.38 21.8405 115.896 23.1348C115.423 24.429 114.748 25.5456 113.873 26.4844C112.998 27.4141 111.954 28.1341 110.742 28.6445C109.539 29.1549 108.204 29.4102 106.736 29.4102C105.214 29.4102 103.801 29.1413 102.498 28.6035C101.204 28.0658 100.069 27.3138 99.0938 26.3477C98.1276 25.3815 97.3757 24.2513 96.8379 22.957C96.3001 21.6536 96.0312 20.2454 96.0312 18.7324C96.0312 17.2194 96.2956 15.8203 96.8242 14.5352C97.362 13.2409 98.1094 12.1107 99.0664 11.1445C100.033 10.1784 101.158 9.42643 102.443 8.88867C103.729 8.35091 105.128 8.08203 106.641 8.08203C108.053 8.08203 109.421 8.32812 110.742 8.82031C112.064 9.3125 113.244 10.0143 114.283 10.9258L111.562 13.6465ZM122.322 29H117.906L126.082 8.49219H130.525L138.688 29H134.271L132.59 24.5977H124.004L122.322 29ZM125.385 20.9062H131.223L128.297 13.3047L125.385 20.9062ZM154.082 29H140.684V8.49219H144.895V25.3223H154.082V29ZM161.902 29H157.691V12.1699H151.648V8.49219H167.959V12.1699H161.902V29Z" fill="white"/>
<path d="M72.3926 48H71.502L69.2871 40.9863L67.0723 48H66.1816L63.3223 39.2109H64.4004L66.6211 46.2422L68.8418 39.2109H69.7324L71.9473 46.2246L74.1562 39.2109H75.2402L72.3926 48ZM81.322 47.2793C80.5955 47.8379 79.7947 48.1172 78.9197 48.1172C78.3103 48.1172 77.7634 47.9805 77.2791 47.707C76.7947 47.4336 76.4119 47.0625 76.1306 46.5938C75.8533 46.1211 75.7146 45.5879 75.7146 44.9941C75.7146 44.4238 75.8435 43.916 76.1013 43.4707C76.3591 43.0215 76.7127 42.668 77.1619 42.4102C77.6111 42.1523 78.1209 42.0234 78.6912 42.0234C79.2771 42.0234 79.7927 42.1641 80.238 42.4453C80.6873 42.7266 81.0369 43.1172 81.2869 43.6172C81.5369 44.1172 81.6619 44.6953 81.6619 45.3516V45.5391H76.7576C76.8279 45.8828 76.9685 46.1816 77.1795 46.4355C77.3943 46.6895 77.6599 46.8867 77.9763 47.0273C78.2927 47.168 78.6462 47.2383 79.0369 47.2383C79.7087 47.2383 80.322 47.0176 80.8767 46.5762L81.322 47.2793ZM76.7224 44.7188H80.7537C80.7107 44.3555 80.5974 44.0391 80.4138 43.7695C80.2341 43.4961 79.9998 43.2832 79.7107 43.1309C79.4255 42.9785 79.1033 42.9023 78.7439 42.9023C78.3806 42.9023 78.0525 42.9785 77.7595 43.1309C77.4705 43.2832 77.2341 43.4961 77.0505 43.7695C76.8709 44.0391 76.7615 44.3555 76.7224 44.7188ZM91.1536 48H90.3274L90.263 47.2266C90.0481 47.5039 89.7747 47.7227 89.4427 47.8828C89.1106 48.0391 88.7395 48.1172 88.3294 48.1172C87.9075 48.1172 87.5305 48.0352 87.1985 47.8711C86.8665 47.7031 86.6048 47.4746 86.4134 47.1855C86.2259 46.8965 86.1321 46.5684 86.1321 46.2012C86.1321 45.8145 86.2337 45.4746 86.4368 45.1816C86.6438 44.8848 86.9231 44.6523 87.2747 44.4844C87.6302 44.3164 88.0325 44.2324 88.4817 44.2324C88.7747 44.2324 89.0735 44.2695 89.3782 44.3438C89.6829 44.4141 89.9544 44.5117 90.1927 44.6367V44.3906C90.1927 44.0781 90.1145 43.8125 89.9583 43.5938C89.802 43.3711 89.593 43.2012 89.3313 43.084C89.0696 42.9629 88.7805 42.9023 88.4641 42.9023C88.1907 42.9023 87.9114 42.9531 87.6262 43.0547C87.3411 43.1523 87.0677 43.3047 86.8059 43.5117L86.4895 42.6855C86.8294 42.4668 87.1868 42.3027 87.5618 42.1934C87.9368 42.0801 88.3079 42.0234 88.6751 42.0234C89.1829 42.0234 89.6204 42.127 89.9876 42.334C90.3587 42.5371 90.6458 42.8281 90.8489 43.207C91.052 43.582 91.1536 44.0273 91.1536 44.543V48ZM88.4993 47.2383C88.8001 47.2383 89.0755 47.1758 89.3255 47.0508C89.5755 46.9258 89.7786 46.7461 89.9348 46.5117C90.0911 46.2734 90.177 45.9922 90.1927 45.668V45.5684C89.9778 45.4004 89.7356 45.2715 89.4661 45.1816C89.2005 45.0879 88.929 45.041 88.6516 45.041C88.218 45.041 87.8548 45.1465 87.5618 45.3574C87.2727 45.5684 87.1282 45.8359 87.1282 46.1602C87.1282 46.3633 87.1868 46.5469 87.304 46.7109C87.4251 46.875 87.5891 47.0039 87.7962 47.0977C88.0032 47.1914 88.2376 47.2383 88.4993 47.2383ZM94.0596 48H93.0987V42.1406H93.9424L93.9834 43.3008C94.1866 42.8984 94.4717 42.5859 94.8389 42.3633C95.21 42.1367 95.6358 42.0234 96.1162 42.0234C96.2217 42.0234 96.3291 42.0293 96.4385 42.041C96.5479 42.0527 96.6573 42.0703 96.7666 42.0938L96.6495 42.9609C96.4346 42.9102 96.2217 42.8848 96.0108 42.8848C95.628 42.8848 95.2881 42.9785 94.9912 43.166C94.6983 43.3535 94.4698 43.6113 94.3057 43.9395C94.1416 44.2676 94.0596 44.6445 94.0596 45.0703V48ZM103.141 47.2793C102.415 47.8379 101.614 48.1172 100.739 48.1172C100.13 48.1172 99.5828 47.9805 99.0984 47.707C98.6141 47.4336 98.2313 47.0625 97.95 46.5938C97.6727 46.1211 97.534 45.5879 97.534 44.9941C97.534 44.4238 97.6629 43.916 97.9207 43.4707C98.1785 43.0215 98.532 42.668 98.9813 42.4102C99.4305 42.1523 99.9402 42.0234 100.511 42.0234C101.096 42.0234 101.612 42.1641 102.057 42.4453C102.507 42.7266 102.856 43.1172 103.106 43.6172C103.356 44.1172 103.481 44.6953 103.481 45.3516V45.5391H98.577C98.6473 45.8828 98.7879 46.1816 98.9988 46.4355C99.2137 46.6895 99.4793 46.8867 99.7957 47.0273C100.112 47.168 100.466 47.2383 100.856 47.2383C101.528 47.2383 102.141 47.0176 102.696 46.5762L103.141 47.2793ZM98.5418 44.7188H102.573C102.53 44.3555 102.417 44.0391 102.233 43.7695C102.054 43.4961 101.819 43.2832 101.53 43.1309C101.245 42.9785 100.923 42.9023 100.563 42.9023C100.2 42.9023 99.8719 42.9785 99.5789 43.1309C99.2898 43.2832 99.0535 43.4961 98.8699 43.7695C98.6902 44.0391 98.5809 44.3555 98.5418 44.7188ZM109.264 48H108.244V38.9766H109.264V48ZM116.459 47.2793C115.732 47.8379 114.932 48.1172 114.057 48.1172C113.447 48.1172 112.9 47.9805 112.416 47.707C111.932 47.4336 111.549 47.0625 111.268 46.5938C110.99 46.1211 110.852 45.5879 110.852 44.9941C110.852 44.4238 110.981 43.916 111.238 43.4707C111.496 43.0215 111.85 42.668 112.299 42.4102C112.748 42.1523 113.258 42.0234 113.828 42.0234C114.414 42.0234 114.93 42.1641 115.375 42.4453C115.824 42.7266 116.174 43.1172 116.424 43.6172C116.674 44.1172 116.799 44.6953 116.799 45.3516V45.5391H111.895C111.965 45.8828 112.106 46.1816 112.316 46.4355C112.531 46.6895 112.797 46.8867 113.113 47.0273C113.43 47.168 113.783 47.2383 114.174 47.2383C114.846 47.2383 115.459 47.0176 116.014 46.5762L116.459 47.2793ZM111.859 44.7188H115.891C115.848 44.3555 115.734 44.0391 115.551 43.7695C115.371 43.4961 115.137 43.2832 114.848 43.1309C114.563 42.9785 114.24 42.9023 113.881 42.9023C113.518 42.9023 113.19 42.9785 112.897 43.1309C112.607 43.2832 112.371 43.4961 112.188 43.7695C112.008 44.0391 111.899 44.3555 111.859 44.7188ZM120.883 48C120.32 48 119.814 47.8691 119.365 47.6074C118.92 47.3457 118.568 46.9902 118.31 46.541C118.053 46.0879 117.924 45.5781 117.924 45.0117C117.924 44.4414 118.053 43.9316 118.31 43.4824C118.568 43.0332 118.92 42.6777 119.365 42.416C119.814 42.1543 120.322 42.0234 120.889 42.0234C121.342 42.0234 121.758 42.1094 122.137 42.2812C122.515 42.4492 122.838 42.6836 123.103 42.9844L123.15 42.1406H124V47.8477C124 48.5039 123.871 49.0703 123.613 49.5469C123.355 50.0273 122.988 50.3965 122.512 50.6543C122.035 50.916 121.469 51.0469 120.812 51.0469C119.883 51.0469 119.074 50.7383 118.387 50.1211L118.808 49.3477C119.344 49.9023 119.998 50.1797 120.771 50.1797C121.236 50.1797 121.637 50.082 121.972 49.8867C122.312 49.6953 122.574 49.4238 122.758 49.0723C122.945 48.7207 123.039 48.3047 123.039 47.8242V47.1035C122.773 47.3809 122.455 47.5996 122.084 47.7598C121.717 47.9199 121.316 48 120.883 48ZM120.965 47.1504C121.347 47.1504 121.695 47.0645 122.008 46.8926C122.32 46.7168 122.57 46.4785 122.758 46.1777C122.945 45.873 123.039 45.5293 123.039 45.1465V44.877C123.039 44.4902 122.945 44.1465 122.758 43.8457C122.57 43.5449 122.32 43.3086 122.008 43.1367C121.695 42.9609 121.347 42.873 120.965 42.873C120.57 42.873 120.217 42.9668 119.904 43.1543C119.592 43.3418 119.344 43.5977 119.16 43.9219C118.98 44.2422 118.89 44.6055 118.89 45.0117C118.89 45.418 118.98 45.7832 119.16 46.1074C119.344 46.4316 119.592 46.6875 119.904 46.875C120.217 47.0586 120.57 47.1504 120.965 47.1504ZM130.732 48H129.906L129.841 47.2266C129.627 47.5039 129.353 47.7227 129.021 47.8828C128.689 48.0391 128.318 48.1172 127.908 48.1172C127.486 48.1172 127.109 48.0352 126.777 47.8711C126.445 47.7031 126.183 47.4746 125.992 47.1855C125.804 46.8965 125.711 46.5684 125.711 46.2012C125.711 45.8145 125.812 45.4746 126.015 45.1816C126.222 44.8848 126.502 44.6523 126.853 44.4844C127.209 44.3164 127.611 44.2324 128.06 44.2324C128.353 44.2324 128.652 44.2695 128.957 44.3438C129.261 44.4141 129.533 44.5117 129.771 44.6367V44.3906C129.771 44.0781 129.693 43.8125 129.537 43.5938C129.38 43.3711 129.171 43.2012 128.91 43.084C128.648 42.9629 128.359 42.9023 128.043 42.9023C127.769 42.9023 127.49 42.9531 127.205 43.0547C126.92 43.1523 126.646 43.3047 126.384 43.5117L126.068 42.6855C126.408 42.4668 126.765 42.3027 127.14 42.1934C127.515 42.0801 127.886 42.0234 128.254 42.0234C128.761 42.0234 129.199 42.127 129.566 42.334C129.937 42.5371 130.224 42.8281 130.427 43.207C130.63 43.582 130.732 44.0273 130.732 44.543V48ZM128.078 47.2383C128.379 47.2383 128.654 47.1758 128.904 47.0508C129.154 46.9258 129.357 46.7461 129.513 46.5117C129.67 46.2734 129.755 45.9922 129.771 45.668V45.5684C129.556 45.4004 129.314 45.2715 129.045 45.1816C128.779 45.0879 128.507 45.041 128.23 45.041C127.796 45.041 127.433 45.1465 127.14 45.3574C126.851 45.5684 126.707 45.8359 126.707 46.1602C126.707 46.3633 126.765 46.5469 126.882 46.7109C127.004 46.875 127.168 47.0039 127.375 47.0977C127.582 47.1914 127.816 47.2383 128.078 47.2383ZM133.697 48H132.677V38.9766H133.697V48ZM140.323 48H139.362V43.002H138.337V42.1406H139.362V40.8809C139.362 40.5176 139.438 40.1973 139.591 39.9199C139.747 39.6426 139.962 39.4258 140.235 39.2695C140.513 39.1133 140.831 39.0352 141.19 39.0352C141.413 39.0352 141.636 39.0664 141.858 39.1289C142.085 39.1875 142.306 39.2793 142.52 39.4043L142.151 40.1602C142.018 40.0742 141.884 40.0098 141.747 39.9668C141.61 39.9199 141.474 39.8965 141.337 39.8965C141.036 39.8965 140.792 40.0059 140.604 40.2246C140.417 40.4395 140.323 40.7207 140.323 41.0684V42.1406H142.134V43.002H140.323V48ZM146.475 48.1172C145.893 48.1172 145.37 47.9844 144.905 47.7188C144.44 47.4531 144.073 47.0918 143.803 46.6348C143.538 46.1738 143.405 45.6523 143.405 45.0703C143.405 44.4922 143.538 43.9746 143.803 43.5176C144.073 43.0566 144.44 42.6934 144.905 42.4277C145.37 42.1582 145.893 42.0234 146.475 42.0234C147.057 42.0234 147.579 42.1582 148.04 42.4277C148.501 42.6934 148.864 43.0566 149.13 43.5176C149.395 43.9746 149.528 44.4922 149.528 45.0703C149.528 45.6523 149.395 46.1738 149.13 46.6348C148.864 47.0918 148.501 47.4531 148.04 47.7188C147.579 47.9844 147.057 48.1172 146.475 48.1172ZM146.469 47.25C146.864 47.25 147.217 47.1543 147.53 46.9629C147.842 46.7715 148.089 46.5117 148.268 46.1836C148.452 45.8555 148.544 45.4824 148.544 45.0645C148.544 44.6543 148.452 44.2852 148.268 43.957C148.089 43.6289 147.842 43.3691 147.53 43.1777C147.217 42.9863 146.864 42.8906 146.469 42.8906C146.075 42.8906 145.719 42.9863 145.403 43.1777C145.09 43.3691 144.842 43.6289 144.659 43.957C144.479 44.2852 144.389 44.6543 144.389 45.0645C144.389 45.4824 144.479 45.8555 144.659 46.1836C144.842 46.5117 145.09 46.7715 145.403 46.9629C145.719 47.1543 146.075 47.25 146.469 47.25ZM152.082 48H151.121V42.1406H151.965L152.006 43.3008C152.209 42.8984 152.495 42.5859 152.862 42.3633C153.233 42.1367 153.659 42.0234 154.139 42.0234C154.245 42.0234 154.352 42.0293 154.461 42.041C154.571 42.0527 154.68 42.0703 154.789 42.0938L154.672 42.9609C154.457 42.9102 154.245 42.8848 154.034 42.8848C153.651 42.8848 153.311 42.9785 153.014 43.166C152.721 43.3535 152.493 43.6113 152.329 43.9395C152.164 44.2676 152.082 44.6445 152.082 45.0703V48ZM163.924 48H163.098L163.033 47.2266C162.818 47.5039 162.545 47.7227 162.213 47.8828C161.881 48.0391 161.51 48.1172 161.1 48.1172C160.678 48.1172 160.301 48.0352 159.969 47.8711C159.637 47.7031 159.375 47.4746 159.184 47.1855C158.996 46.8965 158.902 46.5684 158.902 46.2012C158.902 45.8145 159.004 45.4746 159.207 45.1816C159.414 44.8848 159.693 44.6523 160.045 44.4844C160.4 44.3164 160.803 44.2324 161.252 44.2324C161.545 44.2324 161.844 44.2695 162.148 44.3438C162.453 44.4141 162.725 44.5117 162.963 44.6367V44.3906C162.963 44.0781 162.885 43.8125 162.728 43.5938C162.572 43.3711 162.363 43.2012 162.101 43.084C161.84 42.9629 161.551 42.9023 161.234 42.9023C160.961 42.9023 160.682 42.9531 160.396 43.0547C160.111 43.1523 159.838 43.3047 159.576 43.5117L159.26 42.6855C159.6 42.4668 159.957 42.3027 160.332 42.1934C160.707 42.0801 161.078 42.0234 161.445 42.0234C161.953 42.0234 162.391 42.127 162.758 42.334C163.129 42.5371 163.416 42.8281 163.619 43.207C163.822 43.582 163.924 44.0273 163.924 44.543V48ZM161.269 47.2383C161.57 47.2383 161.846 47.1758 162.096 47.0508C162.346 46.9258 162.549 46.7461 162.705 46.5117C162.861 46.2734 162.947 45.9922 162.963 45.668V45.5684C162.748 45.4004 162.506 45.2715 162.236 45.1816C161.971 45.0879 161.699 45.041 161.422 45.041C160.988 45.041 160.625 45.1465 160.332 45.3574C160.043 45.5684 159.898 45.8359 159.898 46.1602C159.898 46.3633 159.957 46.5469 160.074 46.7109C160.195 46.875 160.359 47.0039 160.566 47.0977C160.773 47.1914 161.008 47.2383 161.269 47.2383ZM166.888 48H165.869V38.9766H166.888V48ZM169.964 48H168.945V38.9766H169.964V48Z" fill="white"/>
<defs>
<clipPath id="clip0_3919_2189">
<rect width="53" height="56" fill="white"/>
</clipPath>
</defs>
</svg>
