<svg width="164" height="56" viewBox="0 0 164 56" fill="none" xmlns="http://www.w3.org/2000/svg">
<g clip-path="url(#clip0_3799_2244)">
<path d="M26.3388 55.845L24.904 55.0085C21.7024 53.2974 -5.59369 37.7151 1.03008 7.57478L1.18978 6.84218L1.92491 6.99174C12.9645 9.2453 23.7481 2.72799 25.8141 0.68483L26.349 0.155029L26.8838 0.687365C28.9447 2.73559 39.7106 9.26051 50.7679 6.99428L51.5031 6.84472L51.6628 7.57731C53.2015 14.5839 53.0215 21.3471 51.1304 27.6819C49.5892 32.8455 46.9047 37.7532 43.153 42.2704C40.1618 45.87 34.9094 51.0996 26.861 55.556L26.3363 55.8475L26.3388 55.845ZM2.36345 8.62171C-3.43647 37.236 22.6201 52.0629 25.6341 53.6725L25.6595 53.6878L26.3566 54.0959C34.0678 49.7814 39.1073 44.7623 41.9869 41.297C49.9745 31.6795 52.7807 20.6905 50.3319 8.62424C48.8642 8.87774 47.4041 8.99181 45.9718 8.99181C37.0464 8.99181 29.1424 4.5937 26.3464 2.25142C23.5453 4.59116 15.6237 8.98674 6.69818 8.98927C5.27355 8.98927 3.82104 8.87773 2.36092 8.62678L2.36345 8.62171Z" fill="#EB5E28"/>
<path d="M16.0791 21.1116V22.7796H20.3074V48.3899C20.8498 48.7955 21.4075 49.1935 21.9754 49.5864C23.1693 50.4128 26.3481 52.352 26.3481 52.352C26.3481 52.352 29.5269 50.4128 30.7209 49.5864C31.2887 49.1935 31.8438 48.7955 32.3889 48.3899V22.7796H36.6171V21.1116H16.0791ZM30.7209 47.8196C30.3457 48.0883 29.7373 48.4939 29.0909 48.9147V37.2895H27.4432V49.9768C26.8095 50.3824 26.3481 50.6714 26.3481 50.6714C26.3481 50.6714 25.8868 50.3799 25.253 49.9768V37.2895H23.6053V48.9147C22.9589 48.4939 22.3505 48.0883 21.9754 47.8196V22.777H30.7209V47.8196Z" fill="#EB5E28"/>
<path d="M25.2529 35.3501V27.0887C25.2529 26.4854 25.7447 25.9937 26.348 25.9937C26.9513 25.9937 27.4431 26.4854 27.4431 27.0887V35.3501H29.0908V27.0887C29.0908 25.5754 27.8588 24.3459 26.348 24.3459C24.8372 24.3459 23.6052 25.5779 23.6052 27.0887V35.3501H25.2529Z" fill="#EB5E28"/>
<path d="M49.127 11.0274C49.1169 10.9691 49.1093 10.926 49.1042 10.9032L49.0028 10.2162L48.3108 10.2897C36.3205 11.5597 26.8804 4.47712 26.7867 4.40614L26.3456 4.07153L25.9045 4.40614C25.8107 4.47712 16.3655 11.5597 4.38036 10.2897L3.68833 10.2162L3.58693 10.9032C3.58439 10.926 3.57679 10.9691 3.56412 11.0274C3.05966 13.8209 2.51212 19.5524 4.50711 26.5463C5.82021 31.1472 8.0256 35.4768 11.065 39.4186C12.7609 41.6164 14.7229 43.6976 16.9359 45.6546C17.4784 46.1337 18.031 46.6052 18.6039 47.0691V24.6755H16.9359V43.7179C11.4883 38.648 7.79239 32.7695 5.90133 26.1508C4.05589 19.6817 4.51979 14.2569 4.9051 11.798C5.73402 11.8665 6.55027 11.8994 7.35131 11.8994C17.0652 11.8994 24.4824 7.1819 26.343 5.88148C28.3558 7.2909 36.8808 12.703 47.781 11.8005C48.1663 14.2594 48.6327 19.6842 46.7848 26.1533C44.8962 32.7721 41.1978 38.6506 35.7502 43.7204V24.678H34.0822V47.0716C34.6526 46.6077 35.2077 46.1362 35.7502 45.6571C37.9632 43.7002 39.9252 41.619 41.6211 39.4212C44.6579 35.4819 46.8659 31.1497 48.179 26.5488C50.174 19.5574 49.6264 13.826 49.122 11.0299L49.127 11.0274Z" fill="#EB5E28"/>
<path d="M12.5479 13.5142V15.2354C12.5479 17.4281 14.3299 19.2102 16.5226 19.2102H36.176C38.3687 19.2102 40.1508 17.4281 40.1508 15.2354V13.6384H38.4828V15.2354C38.4828 16.5079 37.4485 17.5422 36.176 17.5422H16.5226C15.2501 17.5422 14.2158 16.5079 14.2158 15.2354V13.5142H12.5479Z" fill="#EB5E28"/>
<path d="M36.6171 14.0466H16.0791V15.7146H36.6171V14.0466Z" fill="#EB5E28"/>
</g>
<path d="M64.3812 29V9.4H67.7972V25.584H75.9592V29H64.3812ZM79.0374 29V9.4H91.3294V12.816H82.4534V16.792H89.4954V20.208H82.4534V25.584H91.3294V29H79.0374ZM103.367 29.364C102.005 29.364 100.735 29.098 99.5592 28.566C98.3926 28.034 97.3752 27.3013 96.5072 26.368C95.6392 25.4253 94.9579 24.3427 94.4632 23.12C93.9779 21.888 93.7352 20.572 93.7352 19.172C93.7352 17.6973 93.9966 16.344 94.5192 15.112C95.0512 13.88 95.7746 12.8113 96.6892 11.906C97.6039 11.0007 98.6399 10.3007 99.7972 9.806C100.964 9.31133 102.177 9.064 103.437 9.064C104.847 9.064 106.214 9.39533 107.539 10.058C108.874 10.7113 110.05 11.724 111.067 13.096L108.015 14.734C107.39 13.9687 106.671 13.3993 105.859 13.026C105.057 12.6433 104.235 12.452 103.395 12.452C102.574 12.452 101.785 12.62 101.029 12.956C100.283 13.292 99.6152 13.768 99.0272 14.384C98.4486 14.9907 97.9912 15.7093 97.6552 16.54C97.3192 17.3613 97.1512 18.262 97.1512 19.242C97.1512 20.166 97.3146 21.0387 97.6412 21.86C97.9679 22.672 98.4159 23.386 98.9852 24.002C99.5639 24.6087 100.231 25.0847 100.987 25.43C101.743 25.7753 102.555 25.948 103.423 25.948C104.002 25.948 104.567 25.8593 105.117 25.682C105.677 25.4953 106.2 25.2293 106.685 24.884C107.18 24.5387 107.619 24.1187 108.001 23.624C108.393 23.1293 108.72 22.5693 108.981 21.944H105.411V18.962H112.999C113.037 20.39 112.813 21.7293 112.327 22.98C111.842 24.2307 111.156 25.3367 110.269 26.298C109.383 27.2593 108.351 28.0107 107.175 28.552C105.999 29.0933 104.73 29.364 103.367 29.364ZM120.89 9.4H124.824L131.95 29H128.324L127.064 25.528H118.664L117.404 29H113.778L120.89 9.4ZM119.91 22.112H125.804L122.85 14.034L119.91 22.112ZM134.299 29V9.4H137.715V25.584H145.877V29H134.299ZM161.69 9.4V12.816H155.698V29H152.282V12.816H146.29V9.4H161.69Z" fill="white"/>
<path d="M68.9531 46.9883L67.8105 43.25C67.7598 43.0898 67.7109 42.9336 67.6641 42.7812C67.6211 42.625 67.5801 42.4766 67.541 42.3359C67.5059 42.1914 67.4727 42.0586 67.4414 41.9375C67.4141 41.8125 67.3906 41.7051 67.3711 41.6152H67.3301C67.3145 41.7051 67.293 41.8125 67.2656 41.9375C67.2383 42.0586 67.2051 42.1914 67.166 42.3359C67.1309 42.4805 67.0918 42.6328 67.0488 42.793C67.0059 42.9492 66.957 43.1074 66.9023 43.2676L65.707 46.9883H64.6113L62.8418 40.5664H63.8496L64.7754 44.1113C64.8379 44.3457 64.8965 44.5781 64.9512 44.8086C65.0098 45.0352 65.0586 45.25 65.0977 45.4531C65.1406 45.6523 65.1719 45.8262 65.1914 45.9746H65.2383C65.2617 45.877 65.2871 45.7598 65.3145 45.623C65.3457 45.4863 65.3789 45.3418 65.4141 45.1895C65.4531 45.0332 65.4941 44.8789 65.5371 44.7266C65.5801 44.5703 65.623 44.4238 65.666 44.2871L66.8496 40.5664H67.8984L69.041 44.2812C69.0996 44.4688 69.1562 44.6641 69.2109 44.8672C69.2695 45.0703 69.3223 45.2676 69.3691 45.459C69.416 45.6465 69.4492 45.8145 69.4688 45.9629H69.5156C69.5312 45.8301 69.5605 45.666 69.6035 45.4707C69.6465 45.2754 69.6953 45.0605 69.75 44.8262C69.8086 44.5918 69.8691 44.3535 69.9316 44.1113L70.8691 40.5664H71.8594L70.084 46.9883H68.9531ZM75.2639 40.4609C75.8108 40.4609 76.2795 40.582 76.6702 40.8242C77.0608 41.0664 77.3596 41.4062 77.5666 41.8438C77.7737 42.2773 77.8772 42.7852 77.8772 43.3672V43.9707H73.4416C73.4534 44.7246 73.6409 45.2988 74.0041 45.6934C74.3674 46.0879 74.8791 46.2852 75.5393 46.2852C75.9455 46.2852 76.3049 46.248 76.6174 46.1738C76.9299 46.0996 77.2541 45.9902 77.5901 45.8457V46.7012C77.2659 46.8457 76.9436 46.9512 76.6233 47.0176C76.3069 47.084 75.9319 47.1172 75.4983 47.1172C74.8811 47.1172 74.342 46.9922 73.8811 46.7422C73.4241 46.4883 73.0686 46.1172 72.8147 45.6289C72.5608 45.1406 72.4338 44.543 72.4338 43.8359C72.4338 43.1445 72.5491 42.5469 72.7795 42.043C73.0139 41.5352 73.342 41.1445 73.7639 40.8711C74.1897 40.5977 74.6897 40.4609 75.2639 40.4609ZM75.2522 41.2578C74.7327 41.2578 74.3186 41.4277 74.01 41.7676C73.7014 42.1074 73.5178 42.582 73.4592 43.1914H76.8577C76.8538 42.8086 76.7932 42.4727 76.676 42.1836C76.5627 41.8906 76.3889 41.6641 76.1545 41.5039C75.9202 41.3398 75.6194 41.2578 75.2522 41.2578ZM84.5691 40.4727C85.3347 40.4727 85.903 40.6445 86.2741 40.9883C86.6452 41.332 86.8308 41.8809 86.8308 42.6348V47H86.1218L85.9343 46.0508H85.8874C85.7077 46.2852 85.5202 46.4824 85.3249 46.6426C85.1296 46.7988 84.903 46.918 84.6452 47C84.3913 47.0781 84.0788 47.1172 83.7077 47.1172C83.3171 47.1172 82.9695 47.0488 82.6648 46.9121C82.364 46.7754 82.1257 46.5684 81.9499 46.291C81.778 46.0137 81.6921 45.6621 81.6921 45.2363C81.6921 44.5957 81.946 44.1035 82.4538 43.7598C82.9616 43.416 83.7351 43.2285 84.7741 43.1973L85.8816 43.1504V42.7578C85.8816 42.2031 85.7624 41.8145 85.5241 41.5918C85.2859 41.3691 84.9499 41.2578 84.5163 41.2578C84.1804 41.2578 83.8601 41.3066 83.5554 41.4043C83.2507 41.502 82.9616 41.6172 82.6882 41.75L82.3894 41.0117C82.6784 40.8633 83.0105 40.7363 83.3855 40.6309C83.7605 40.5254 84.155 40.4727 84.5691 40.4727ZM85.8698 43.8359L84.8913 43.877C84.0905 43.9082 83.5261 44.0391 83.198 44.2695C82.8698 44.5 82.7058 44.8262 82.7058 45.248C82.7058 45.6152 82.8171 45.8867 83.0398 46.0625C83.2624 46.2383 83.5573 46.3262 83.9245 46.3262C84.4948 46.3262 84.9616 46.168 85.3249 45.8516C85.6882 45.5352 85.8698 45.0605 85.8698 44.4277V43.8359ZM91.5127 40.4609C91.6416 40.4609 91.7763 40.4688 91.917 40.4844C92.0576 40.4961 92.1826 40.5137 92.292 40.5371L92.1689 41.4395C92.0634 41.4121 91.9463 41.3906 91.8173 41.375C91.6884 41.3594 91.5673 41.3516 91.4541 41.3516C91.1963 41.3516 90.9521 41.4043 90.7216 41.5098C90.4951 41.6113 90.2959 41.7598 90.124 41.9551C89.9521 42.1465 89.8173 42.3789 89.7197 42.6523C89.622 42.9219 89.5732 43.2227 89.5732 43.5547V47H88.5947V40.5781H89.4033L89.5088 41.7617H89.5498C89.6826 41.5234 89.8427 41.3066 90.0302 41.1113C90.2177 40.9121 90.4345 40.7539 90.6806 40.6367C90.9306 40.5195 91.208 40.4609 91.5127 40.4609ZM95.7375 40.4609C96.2844 40.4609 96.7531 40.582 97.1437 40.8242C97.5344 41.0664 97.8332 41.4062 98.0402 41.8438C98.2473 42.2773 98.3508 42.7852 98.3508 43.3672V43.9707H93.9152C93.927 44.7246 94.1145 45.2988 94.4777 45.6934C94.841 46.0879 95.3527 46.2852 96.0129 46.2852C96.4191 46.2852 96.7785 46.248 97.091 46.1738C97.4035 46.0996 97.7277 45.9902 98.0637 45.8457V46.7012C97.7395 46.8457 97.4172 46.9512 97.0969 47.0176C96.7805 47.084 96.4055 47.1172 95.9719 47.1172C95.3547 47.1172 94.8156 46.9922 94.3547 46.7422C93.8977 46.4883 93.5422 46.1172 93.2883 45.6289C93.0344 45.1406 92.9074 44.543 92.9074 43.8359C92.9074 43.1445 93.0227 42.5469 93.2531 42.043C93.4875 41.5352 93.8156 41.1445 94.2375 40.8711C94.6633 40.5977 95.1633 40.4609 95.7375 40.4609ZM95.7258 41.2578C95.2062 41.2578 94.7922 41.4277 94.4836 41.7676C94.175 42.1074 93.9914 42.582 93.9328 43.1914H97.3312C97.3273 42.8086 97.2668 42.4727 97.1496 42.1836C97.0363 41.8906 96.8625 41.6641 96.6281 41.5039C96.3937 41.3398 96.093 41.2578 95.7258 41.2578ZM103.619 47H102.64V37.8828H103.619V47ZM107.908 40.4609C108.455 40.4609 108.924 40.582 109.314 40.8242C109.705 41.0664 110.004 41.4062 110.211 41.8438C110.418 42.2773 110.521 42.7852 110.521 43.3672V43.9707H106.086C106.098 44.7246 106.285 45.2988 106.648 45.6934C107.012 46.0879 107.523 46.2852 108.184 46.2852C108.59 46.2852 108.949 46.248 109.262 46.1738C109.574 46.0996 109.898 45.9902 110.234 45.8457V46.7012C109.91 46.8457 109.588 46.9512 109.268 47.0176C108.951 47.084 108.576 47.1172 108.143 47.1172C107.525 47.1172 106.986 46.9922 106.525 46.7422C106.068 46.4883 105.713 46.1172 105.459 45.6289C105.205 45.1406 105.078 44.543 105.078 43.8359C105.078 43.1445 105.193 42.5469 105.424 42.043C105.658 41.5352 105.986 41.1445 106.408 40.8711C106.834 40.5977 107.334 40.4609 107.908 40.4609ZM107.896 41.2578C107.377 41.2578 106.963 41.4277 106.654 41.7676C106.346 42.1074 106.162 42.582 106.103 43.1914H109.502C109.498 42.8086 109.437 42.4727 109.32 42.1836C109.207 41.8906 109.033 41.6641 108.799 41.5039C108.564 41.3398 108.264 41.2578 107.896 41.2578ZM113.727 49.8828C112.883 49.8828 112.233 49.7246 111.776 49.4082C111.319 49.0957 111.09 48.6562 111.09 48.0898C111.09 47.6875 111.217 47.3438 111.471 47.0586C111.729 46.7734 112.084 46.584 112.537 46.4902C112.369 46.4121 112.225 46.2949 112.104 46.1387C111.986 45.9824 111.928 45.8027 111.928 45.5996C111.928 45.3652 111.992 45.1602 112.121 44.9844C112.254 44.8047 112.455 44.6328 112.725 44.4688C112.389 44.332 112.115 44.1016 111.904 43.7773C111.697 43.4492 111.594 43.0684 111.594 42.6348C111.594 42.1738 111.69 41.7812 111.881 41.457C112.072 41.1289 112.35 40.8789 112.713 40.707C113.076 40.5352 113.516 40.4492 114.031 40.4492C114.145 40.4492 114.258 40.4551 114.371 40.4668C114.488 40.4746 114.6 40.4883 114.705 40.5078C114.811 40.5234 114.903 40.543 114.981 40.5664H117.184V41.1934L116 41.3398C116.117 41.4922 116.215 41.6758 116.293 41.8906C116.371 42.1055 116.41 42.3438 116.41 42.6055C116.41 43.2461 116.194 43.7559 115.76 44.1348C115.326 44.5098 114.731 44.6973 113.973 44.6973C113.793 44.6973 113.61 44.6816 113.422 44.6504C113.231 44.7559 113.084 44.873 112.983 45.002C112.885 45.1309 112.836 45.2793 112.836 45.4473C112.836 45.5723 112.873 45.6719 112.947 45.7461C113.026 45.8203 113.137 45.875 113.281 45.9102C113.426 45.9414 113.6 45.957 113.803 45.957H114.934C115.633 45.957 116.168 46.1035 116.539 46.3965C116.914 46.6895 117.102 47.1172 117.102 47.6797C117.102 48.3906 116.813 48.9355 116.235 49.3145C115.656 49.6934 114.82 49.8828 113.727 49.8828ZM113.756 49.1211C114.287 49.1211 114.727 49.0664 115.074 48.957C115.426 48.8516 115.688 48.6973 115.86 48.4941C116.035 48.2949 116.123 48.0566 116.123 47.7793C116.123 47.5215 116.065 47.3262 115.947 47.1934C115.83 47.0645 115.658 46.9785 115.432 46.9355C115.205 46.8887 114.928 46.8652 114.6 46.8652H113.486C113.197 46.8652 112.945 46.9102 112.731 47C112.516 47.0898 112.35 47.2227 112.233 47.3984C112.119 47.5742 112.063 47.793 112.063 48.0547C112.063 48.4023 112.209 48.666 112.502 48.8457C112.795 49.0293 113.213 49.1211 113.756 49.1211ZM114.008 43.9883C114.473 43.9883 114.822 43.8711 115.057 43.6367C115.291 43.4023 115.408 43.0605 115.408 42.6113C115.408 42.1309 115.289 41.7715 115.051 41.5332C114.813 41.291 114.461 41.1699 113.996 41.1699C113.551 41.1699 113.207 41.2949 112.965 41.5449C112.727 41.791 112.608 42.1523 112.608 42.6289C112.608 43.0664 112.729 43.4023 112.971 43.6367C113.213 43.8711 113.559 43.9883 114.008 43.9883ZM120.612 40.4727C121.377 40.4727 121.946 40.6445 122.317 40.9883C122.688 41.332 122.873 41.8809 122.873 42.6348V47H122.164L121.977 46.0508H121.93C121.75 46.2852 121.563 46.4824 121.368 46.6426C121.172 46.7988 120.946 46.918 120.688 47C120.434 47.0781 120.121 47.1172 119.75 47.1172C119.36 47.1172 119.012 47.0488 118.707 46.9121C118.407 46.7754 118.168 46.5684 117.993 46.291C117.821 46.0137 117.735 45.6621 117.735 45.2363C117.735 44.5957 117.989 44.1035 118.496 43.7598C119.004 43.416 119.778 43.2285 120.817 43.1973L121.924 43.1504V42.7578C121.924 42.2031 121.805 41.8145 121.567 41.5918C121.329 41.3691 120.993 41.2578 120.559 41.2578C120.223 41.2578 119.903 41.3066 119.598 41.4043C119.293 41.502 119.004 41.6172 118.731 41.75L118.432 41.0117C118.721 40.8633 119.053 40.7363 119.428 40.6309C119.803 40.5254 120.198 40.4727 120.612 40.4727ZM121.912 43.8359L120.934 43.877C120.133 43.9082 119.569 44.0391 119.241 44.2695C118.912 44.5 118.748 44.8262 118.748 45.248C118.748 45.6152 118.86 45.8867 119.082 46.0625C119.305 46.2383 119.6 46.3262 119.967 46.3262C120.537 46.3262 121.004 46.168 121.368 45.8516C121.731 45.5352 121.912 45.0605 121.912 44.4277V43.8359ZM125.616 47H124.637V37.8828H125.616V47ZM133.169 41.3398H131.569V47H130.597V41.3398H129.46V40.8711L130.597 40.5488V40.1211C130.597 39.582 130.677 39.1445 130.837 38.8086C130.997 38.4688 131.23 38.2188 131.534 38.0586C131.839 37.8984 132.21 37.8184 132.648 37.8184C132.894 37.8184 133.118 37.8398 133.321 37.8828C133.528 37.9258 133.71 37.9746 133.866 38.0293L133.614 38.7969C133.482 38.7539 133.331 38.7148 133.163 38.6797C132.999 38.6406 132.831 38.6211 132.659 38.6211C132.288 38.6211 132.013 38.7422 131.833 38.9844C131.657 39.2227 131.569 39.5977 131.569 40.1094V40.5781H133.169V41.3398ZM139.65 43.7773C139.65 44.3047 139.581 44.7754 139.445 45.1895C139.308 45.6035 139.111 45.9531 138.853 46.2383C138.595 46.5234 138.283 46.7422 137.915 46.8945C137.552 47.043 137.14 47.1172 136.679 47.1172C136.249 47.1172 135.855 47.043 135.495 46.8945C135.14 46.7422 134.831 46.5234 134.57 46.2383C134.312 45.9531 134.111 45.6035 133.966 45.1895C133.826 44.7754 133.755 44.3047 133.755 43.7773C133.755 43.0742 133.874 42.4766 134.113 41.9844C134.351 41.4883 134.691 41.1113 135.132 40.8535C135.577 40.5918 136.107 40.4609 136.72 40.4609C137.306 40.4609 137.818 40.5918 138.255 40.8535C138.697 41.1152 139.038 41.4941 139.281 41.9902C139.527 42.4824 139.65 43.0781 139.65 43.7773ZM134.763 43.7773C134.763 44.293 134.831 44.7402 134.968 45.1191C135.105 45.498 135.316 45.791 135.601 45.998C135.886 46.2051 136.253 46.3086 136.702 46.3086C137.148 46.3086 137.513 46.2051 137.798 45.998C138.087 45.791 138.3 45.498 138.437 45.1191C138.574 44.7402 138.642 44.293 138.642 43.7773C138.642 43.2656 138.574 42.8242 138.437 42.4531C138.3 42.0781 138.089 41.7891 137.804 41.5859C137.519 41.3828 137.15 41.2812 136.697 41.2812C136.029 41.2812 135.538 41.502 135.226 41.9434C134.917 42.3848 134.763 42.9961 134.763 43.7773ZM144.009 40.4609C144.138 40.4609 144.273 40.4688 144.414 40.4844C144.554 40.4961 144.679 40.5137 144.789 40.5371L144.666 41.4395C144.56 41.4121 144.443 41.3906 144.314 41.375C144.185 41.3594 144.064 41.3516 143.951 41.3516C143.693 41.3516 143.449 41.4043 143.218 41.5098C142.992 41.6113 142.793 41.7598 142.621 41.9551C142.449 42.1465 142.314 42.3789 142.216 42.6523C142.119 42.9219 142.07 43.2227 142.07 43.5547V47H141.091V40.5781H141.9L142.005 41.7617H142.046C142.179 41.5234 142.339 41.3066 142.527 41.1113C142.714 40.9121 142.931 40.7539 143.177 40.6367C143.427 40.5195 143.705 40.4609 144.009 40.4609ZM151.041 40.4727C151.807 40.4727 152.375 40.6445 152.746 40.9883C153.117 41.332 153.303 41.8809 153.303 42.6348V47H152.594L152.406 46.0508H152.359C152.18 46.2852 151.992 46.4824 151.797 46.6426C151.602 46.7988 151.375 46.918 151.117 47C150.863 47.0781 150.551 47.1172 150.18 47.1172C149.789 47.1172 149.441 47.0488 149.137 46.9121C148.836 46.7754 148.598 46.5684 148.422 46.291C148.25 46.0137 148.164 45.6621 148.164 45.2363C148.164 44.5957 148.418 44.1035 148.926 43.7598C149.434 43.416 150.207 43.2285 151.246 43.1973L152.354 43.1504V42.7578C152.354 42.2031 152.234 41.8145 151.996 41.5918C151.758 41.3691 151.422 41.2578 150.988 41.2578C150.652 41.2578 150.332 41.3066 150.027 41.4043C149.723 41.502 149.434 41.6172 149.16 41.75L148.861 41.0117C149.15 40.8633 149.482 40.7363 149.857 40.6309C150.232 40.5254 150.627 40.4727 151.041 40.4727ZM152.342 43.8359L151.363 43.877C150.563 43.9082 149.998 44.0391 149.67 44.2695C149.342 44.5 149.178 44.8262 149.178 45.248C149.178 45.6152 149.289 45.8867 149.512 46.0625C149.734 46.2383 150.029 46.3262 150.397 46.3262C150.967 46.3262 151.434 46.168 151.797 45.8516C152.16 45.5352 152.342 45.0605 152.342 44.4277V43.8359ZM156.045 47H155.067V37.8828H156.045V47ZM158.84 47H157.862V37.8828H158.84V47Z" fill="white" fill-opacity="0.7"/>
<defs>
<clipPath id="clip0_3799_2244">
<rect width="52.7011" height="55.69" fill="white" transform="translate(0 0.155029)"/>
</clipPath>
</defs>
</svg>
