<svg width="53" height="56" viewBox="0 0 53 56" fill="none" xmlns="http://www.w3.org/2000/svg">
<g clip-path="url(#clip0_3919_2190)">
<path d="M26.4882 56L25.0453 55.1588C21.8255 53.4382 -5.6254 37.7692 1.03593 7.46105L1.19654 6.72438L1.93584 6.87477C13.0381 9.14087 23.8828 2.58728 25.9605 0.53275L26.4984 0L27.0363 0.535299C29.1089 2.59493 39.9358 9.15617 51.0558 6.87732L51.7951 6.72693L51.9557 7.4636C53.5032 14.5092 53.3222 21.31 51.4204 27.6801C49.8704 32.8725 47.1707 37.8074 43.3977 42.3498C40.3895 45.9695 35.1074 51.2281 27.0133 55.7094L26.4856 56.0025L26.4882 56ZM2.37687 8.51381C-3.45594 37.2874 22.7484 52.1968 25.7795 53.8154L25.805 53.8307L26.506 54.2411C34.261 49.9026 39.329 44.8555 42.225 41.371C50.2579 31.6999 53.08 20.6498 50.6173 8.51636C49.1413 8.77126 47.6729 8.88597 46.2325 8.88597C37.2564 8.88597 29.3077 4.46338 26.4958 2.10806C23.6789 4.46083 15.7123 8.88087 6.73618 8.88342C5.30347 8.88342 3.84272 8.77126 2.37432 8.51891L2.37687 8.51381Z" fill="#ED6835"/>
<path d="M16.1703 21.0732V22.7505H20.4225V48.5035C20.9681 48.9113 21.5289 49.3115 22.1 49.7066C23.3007 50.5376 26.4975 52.4876 26.4975 52.4876C26.4975 52.4876 29.6944 50.5376 30.8951 49.7066C31.4661 49.3115 32.0244 48.9113 32.5725 48.5035V22.7505H36.8248V21.0732H16.1703ZM30.8951 47.9299C30.5178 48.2001 29.906 48.608 29.2559 49.0311V37.3412H27.5988V50.0992C26.9615 50.507 26.4975 50.7976 26.4975 50.7976C26.4975 50.7976 26.0336 50.5045 25.3962 50.0992V37.3412H23.7392V49.0311C23.0891 48.608 22.4773 48.2001 22.1 47.9299V22.748H30.8951V47.9299Z" fill="#ED6835"/>
<path d="M25.3962 35.3908V27.0835C25.3962 26.4768 25.8907 25.9823 26.4975 25.9823C27.1042 25.9823 27.5988 26.4768 27.5988 27.0835V35.3908H29.2558V27.0835C29.2558 25.5617 28.0169 24.3254 26.4975 24.3254C24.9781 24.3254 23.7391 25.5643 23.7391 27.0835V35.3908H25.3962Z" fill="#ED6835"/>
<path d="M49.4057 10.9328C49.3955 10.8742 49.3878 10.8308 49.3827 10.8079L49.2807 10.1171L48.5848 10.191C36.5266 11.4681 27.0329 4.34608 26.9386 4.27471L26.495 3.93823L26.0514 4.27471C25.9571 4.34608 16.4584 11.4681 4.40525 10.191L3.70929 10.1171L3.60731 10.8079C3.60476 10.8308 3.59712 10.8742 3.58437 10.9328C3.07706 13.7419 2.52641 19.5052 4.53271 26.5381C5.85326 31.1646 8.07115 35.5183 11.1278 39.4821C12.8333 41.6921 14.8064 43.7849 17.032 45.7528C17.5775 46.2345 18.1333 46.7087 18.7094 47.1751V24.6569H17.032V43.8053C11.5535 38.7072 7.83662 32.796 5.93483 26.1404C4.07894 19.6353 4.54546 14.1803 4.93295 11.7077C5.76658 11.7765 6.58746 11.8097 7.39304 11.8097C17.162 11.8097 24.6213 7.06591 26.4925 5.75825C28.5166 7.17552 37.09 12.6177 48.052 11.7103C48.4395 14.1828 48.9085 19.6378 47.0501 26.143C45.1509 32.7985 41.4314 38.7098 35.953 43.8078V24.6594H34.2755V47.1777C34.8491 46.7112 35.4074 46.2371 35.953 45.7553C38.1785 43.7874 40.1517 41.6947 41.8572 39.4847C44.9112 35.5234 47.1317 31.1671 48.4522 26.5406C50.4585 19.5103 49.9079 13.747 49.4006 10.9354L49.4057 10.9328Z" fill="#ED6835"/>
<path d="M12.6191 13.4333V15.1642C12.6191 17.3691 14.4113 19.1611 16.6165 19.1611H36.3813C38.5864 19.1611 40.3786 17.3691 40.3786 15.1642V13.5583H38.7011V15.1642C38.7011 16.4438 37.661 17.4838 36.3813 17.4838H16.6165C15.3367 17.4838 14.2966 16.4438 14.2966 15.1642V13.4333H12.6191Z" fill="#ED6835"/>
<path d="M36.8248 13.9688H16.1703V15.646H36.8248V13.9688Z" fill="#ED6835"/>
</g>
<defs>
<clipPath id="clip0_3919_2190">
<rect width="53" height="56" fill="white"/>
</clipPath>
</defs>
</svg>
