<svg width="53" height="56" viewBox="0 0 53 56" fill="none" xmlns="http://www.w3.org/2000/svg">
<g clip-path="url(#clip0_3320_539)">
<path d="M26.3388 55.845L24.904 55.0085C21.7024 53.2974 -5.59369 37.7151 1.03008 7.57478L1.18978 6.84218L1.92491 6.99174C12.9645 9.2453 23.7481 2.72799 25.8141 0.68483L26.349 0.155029L26.8838 0.687365C28.9447 2.73559 39.7106 9.26051 50.7679 6.99428L51.5031 6.84472L51.6628 7.57731C53.2015 14.5839 53.0215 21.3471 51.1304 27.6819C49.5892 32.8455 46.9047 37.7532 43.153 42.2704C40.1618 45.87 34.9094 51.0996 26.861 55.556L26.3363 55.8475L26.3388 55.845ZM2.36345 8.62171C-3.43647 37.236 22.6201 52.0629 25.6341 53.6725L25.6595 53.6878L26.3566 54.0959C34.0678 49.7814 39.1073 44.7623 41.9869 41.297C49.9745 31.6795 52.7807 20.6905 50.3319 8.62424C48.8642 8.87774 47.4041 8.99181 45.9718 8.99181C37.0464 8.99181 29.1424 4.5937 26.3464 2.25142C23.5453 4.59116 15.6237 8.98674 6.69818 8.98927C5.27355 8.98927 3.82104 8.87773 2.36092 8.62678L2.36345 8.62171Z" fill="white"/>
<path d="M16.079 21.1113V22.7793H20.3072V48.3897C20.8497 48.7953 21.4074 49.1933 21.9752 49.5862C23.1692 50.4126 26.348 52.3518 26.348 52.3518C26.348 52.3518 29.5268 50.4126 30.7207 49.5862C31.2886 49.1933 31.8437 48.7953 32.3887 48.3897V22.7793H36.617V21.1113H16.079ZM30.7207 47.8193C30.3456 48.088 29.7372 48.4936 29.0908 48.9144V37.2892H27.4431V49.9766C26.8093 50.3822 26.348 50.6711 26.348 50.6711C26.348 50.6711 25.8866 50.3796 25.2529 49.9766V37.2892H23.6052V48.9144C22.9588 48.4936 22.3504 48.088 21.9752 47.8193V22.7768H30.7207V47.8193Z" fill="white"/>
<path d="M25.2529 35.3501V27.0887C25.2529 26.4854 25.7447 25.9937 26.348 25.9937C26.9513 25.9937 27.4431 26.4854 27.4431 27.0887V35.3501H29.0908V27.0887C29.0908 25.5754 27.8588 24.3459 26.348 24.3459C24.8372 24.3459 23.6052 25.5779 23.6052 27.0887V35.3501H25.2529Z" fill="white"/>
<path d="M49.127 11.0274C49.1169 10.9691 49.1093 10.926 49.1042 10.9032L49.0028 10.2162L48.3108 10.2897C36.3205 11.5597 26.8804 4.47712 26.7867 4.40614L26.3456 4.07153L25.9045 4.40614C25.8107 4.47712 16.3655 11.5597 4.38036 10.2897L3.68833 10.2162L3.58693 10.9032C3.58439 10.926 3.57679 10.9691 3.56412 11.0274C3.05966 13.8209 2.51212 19.5524 4.50711 26.5463C5.82021 31.1472 8.0256 35.4768 11.065 39.4186C12.7609 41.6164 14.7229 43.6976 16.9359 45.6546C17.4784 46.1337 18.031 46.6052 18.6039 47.0691V24.6755H16.9359V43.7179C11.4883 38.648 7.79239 32.7695 5.90133 26.1508C4.05589 19.6817 4.51979 14.2569 4.9051 11.798C5.73402 11.8665 6.55027 11.8994 7.35131 11.8994C17.0652 11.8994 24.4824 7.1819 26.343 5.88148C28.3558 7.2909 36.8808 12.703 47.781 11.8005C48.1663 14.2594 48.6327 19.6842 46.7848 26.1533C44.8962 32.7721 41.1978 38.6506 35.7502 43.7204V24.678H34.0822V47.0716C34.6526 46.6077 35.2077 46.1362 35.7502 45.6571C37.9632 43.7002 39.9252 41.619 41.6211 39.4212C44.6579 35.4819 46.8659 31.1497 48.179 26.5488C50.174 19.5574 49.6264 13.826 49.122 11.0299L49.127 11.0274Z" fill="white"/>
<path d="M12.5479 13.5142V15.2354C12.5479 17.4281 14.33 19.2102 16.5227 19.2102H36.176C38.3688 19.2102 40.1508 17.4281 40.1508 15.2354V13.6384H38.4828V15.2354C38.4828 16.5079 37.4486 17.5422 36.176 17.5422H16.5227C15.2502 17.5422 14.2159 16.5079 14.2159 15.2354V13.5142H12.5479Z" fill="white"/>
<path d="M36.617 14.0466H16.079V15.7146H36.617V14.0466Z" fill="white"/>
</g>
<defs>
<clipPath id="clip0_3320_539">
<rect width="52.7011" height="55.69" fill="white" transform="translate(0 0.155029)"/>
</clipPath>
</defs>
</svg>
