<svg width="179" height="179" viewBox="0 0 179 179" fill="none" xmlns="http://www.w3.org/2000/svg">
<g opacity="0.3">
<mask id="mask0_3919_1605" style="mask-type:alpha" maskUnits="userSpaceOnUse" x="0" y="0" width="179" height="179">
<circle cx="89.5" cy="89.5" r="89" fill="#C4C4C4" stroke="#FED8CE"/>
</mask>
<g mask="url(#mask0_3919_1605)">
<path d="M-24 43C-24 43 13.2835 36.1482 22.9031 12.1674C32.103 -10.8209 70 -17 70 -17" stroke="#030A0C" stroke-miterlimit="10"/>
<path d="M-24 55C-24 55 21.6585 47.0395 33.4195 17.9042C44.6327 -9.9097 91 -17 91 -17" stroke="#030A0C" stroke-miterlimit="10"/>
<path d="M-24 66C-24 66 30.0009 57.0124 43.9034 23.2046C57.1623 -9.13179 112 -17 112 -17" stroke="#030A0C" stroke-miterlimit="10"/>
<path d="M-24 78C-24 78 38.3756 67.9053 54.4196 28.9408C69.692 -8.22334 133 -17 133 -17" stroke="#030A0C" stroke-miterlimit="10"/>
<path d="M-24 89C-24 89 46.7629 77.9044 64.9517 34.2253C82.2407 -7.40722 154 -17 154 -17" stroke="#030A0C" stroke-miterlimit="10"/>
<path d="M-24 101C-24 101 55.1054 88.802 75.4358 39.9776C94.8025 -6.53544 175 -17 175 -17" stroke="#030A0C" stroke-miterlimit="10"/>
<path d="M-24 113C-24 113 63.48 99.6649 85.9519 45.7453C107.332 -5.6299 196 -17 196 -17" stroke="#030A0C" stroke-miterlimit="10"/>
<path d="M-24 124C-24 124 71.8545 109.663 96.4357 50.9983C119.862 -4.8117 217 -17 217 -17" stroke="#030A0C" stroke-miterlimit="10"/>
<path d="M-24 136C-24 136 80.2095 120.562 106.968 56.782C132.411 -3.94193 238 -17 238 -17" stroke="#030A0C" stroke-miterlimit="10"/>
<path d="M-24 147C-24 147 88.5842 130.559 117.452 62.0678C144.94 -3.1224 259 -17 259 -17" stroke="#030A0C" stroke-miterlimit="10"/>
<path d="M-24 159C-24 159 96.9586 141.426 127.968 67.8195C157.47 -2.22096 280 -17 280 -17" stroke="#030A0C" stroke-miterlimit="10"/>
<path d="M-24 171C-24 171 105.301 152.322 138.452 73.5864C170 -1.34945 301 -17 301 -17" stroke="#030A0C" stroke-miterlimit="10"/>
<path d="M-24 182C-24 182 114.074 162.32 149.468 78.8402C183.127 -0.528932 323 -17 323 -17" stroke="#030A0C" stroke-miterlimit="10"/>
<path d="M-24 194C-24 194 122.461 173.187 160 84.624C195.675 0.371663 344 -17 344 -17" stroke="#030A0C" stroke-miterlimit="10"/>
<path d="M-24 205C-24 205 130.803 183.182 170.484 89.877C208.205 1.16036 365 -17 365 -17" stroke="#030A0C" stroke-miterlimit="10"/>
<path d="M-24 217C-24 217 139.178 194.078 181 95.6435C220.734 2.06321 386 -17 386 -17" stroke="#030A0C" stroke-miterlimit="10"/>
<path d="M-24 228C-24 228 147.552 204.076 191.484 100.914C233.264 2.88207 407 -17 407 -17" stroke="#030A0C" stroke-miterlimit="10"/>
<path d="M-24 240C-24 240 155.907 214.943 202.016 106.681C245.813 3.75262 428 -17 428 -17" stroke="#030A0C" stroke-miterlimit="10"/>
</g>
</g>
</svg>
