<svg width="64" height="64" viewBox="0 0 64 64" fill="none" xmlns="http://www.w3.org/2000/svg">
<path d="M63 35.0026H61.65L54.16 18.3641C54.9546 17.8464 55.5394 17.0632 55.81 16.1543C56.2947 16.2122 56.782 16.2456 57.27 16.2543C58.2506 16.318 59.2208 16.023 60 15.4244C60.3354 15.1202 60.599 14.7453 60.7719 14.3269C60.9449 13.9084 61.0228 13.4568 61 13.0046C61 12.7394 60.8946 12.4851 60.7071 12.2976C60.5196 12.1101 60.2652 12.0047 60 12.0047C59.7348 12.0047 59.4804 12.1101 59.2929 12.2976C59.1054 12.4851 59 12.7394 59 13.0046C59 13.6746 58.79 13.8645 58.71 13.9245C58.24 14.3445 57.02 14.2745 55.9 14.1545C55.6789 13.2143 55.1251 12.3858 54.3407 11.822C53.5563 11.2583 52.5944 10.9975 51.6326 11.0877C50.6709 11.1779 49.7743 11.613 49.1084 12.3127C48.4425 13.0125 48.0524 13.9295 48.01 14.8944C46.66 14.8944 44.8 14.3345 41.56 12.1747C40.6424 11.5413 39.5738 11.1615 38.4622 11.0737C37.3507 10.9859 36.2357 11.1932 35.23 11.6747C35.16 11.5747 35.08 11.4848 35 11.3848V8.00507H38C38.1974 8.00409 38.3901 7.94469 38.5539 7.83437C38.7176 7.72404 38.845 7.56773 38.92 7.38513C38.9966 7.20303 39.0175 7.00234 38.9801 6.80837C38.9428 6.6144 38.8488 6.43584 38.71 6.29523L32.71 0.295772C32.617 0.202052 32.5064 0.127664 32.3846 0.0769C32.2627 0.0261359 32.132 0 32 0C31.868 0 31.7373 0.0261359 31.6154 0.0769C31.4936 0.127664 31.383 0.202052 31.29 0.295772L25.29 6.29523C25.1512 6.43584 25.0572 6.6144 25.0199 6.80837C24.9825 7.00234 25.0034 7.20303 25.08 7.38513C25.155 7.56773 25.2824 7.72404 25.4461 7.83437C25.6099 7.94469 25.8026 8.00409 26 8.00507H29V11.3848C28.92 11.4848 28.84 11.5747 28.77 11.6747C27.7661 11.1931 26.6526 10.9857 25.5426 11.0735C24.4327 11.1613 23.3657 11.5412 22.45 12.1747C19.2 14.3345 17.34 14.8745 15.99 14.8944C15.9476 13.9295 15.5575 13.0125 14.8916 12.3127C14.2257 11.613 13.3291 11.1779 12.3674 11.0877C11.4056 10.9975 10.4437 11.2583 9.65933 11.822C8.87494 12.3858 8.32106 13.2143 8.1 14.1545C6.98 14.2745 5.76 14.3445 5.29 13.9245C5.21 13.8645 5 13.6746 5 13.0046C5 12.7394 4.89464 12.4851 4.70711 12.2976C4.51957 12.1101 4.26522 12.0047 4 12.0047C3.73478 12.0047 3.48043 12.1101 3.29289 12.2976C3.10536 12.4851 3 12.7394 3 13.0046C2.97725 13.4568 3.05515 13.9084 3.22807 14.3269C3.401 14.7453 3.66465 15.1202 4 15.4244C4.78974 16.0324 5.77599 16.3279 6.77 16.2543C7.25804 16.2456 7.74532 16.2122 8.23 16.1543C8.50061 17.0632 9.08539 17.8464 9.88 18.3641L2.35 35.0026H1C0.734784 35.0026 0.48043 35.108 0.292893 35.2955C0.105357 35.483 0 35.7373 0 36.0025C4.74244e-08 39.1848 1.26428 42.2368 3.51472 44.487C5.76515 46.7373 8.8174 48.0014 12 48.0014C15.1826 48.0014 18.2348 46.7373 20.4853 44.487C22.7357 42.2368 24 39.1848 24 36.0025C24 35.7373 23.8946 35.483 23.7071 35.2955C23.5196 35.108 23.2652 35.0026 23 35.0026H21.65L14.16 18.3641C14.7345 17.9891 15.2028 17.4726 15.52 16.8643H15.89C18.05 16.8643 20.38 15.9244 23.56 13.8045C24.2072 13.3431 24.9704 13.0715 25.7637 13.0203C26.557 12.969 27.3488 13.1402 28.05 13.5146C28.0215 13.6765 28.0048 13.8402 28 14.0045C28.0062 14.9698 28.3614 15.9003 29 16.6243V30.0031C28.379 30.4688 27.875 31.0726 27.5279 31.7669C27.1807 32.4611 27 33.2266 27 34.0027V51.3511C25.628 52.143 24.4637 53.2494 23.6031 54.5793C22.7425 55.9092 22.2102 57.4245 22.05 59.0005H20.5C19.837 59.0005 19.2011 59.2638 18.7322 59.7326C18.2634 60.2014 18 60.8372 18 61.5002C18 62.1632 18.2634 62.799 18.7322 63.2678C19.2011 63.7366 19.837 64 20.5 64H43.5C44.163 64 44.7989 63.7366 45.2678 63.2678C45.7366 62.799 46 62.1632 46 61.5002C46 60.8372 45.7366 60.2014 45.2678 59.7326C44.7989 59.2638 44.163 59.0005 43.5 59.0005H42C41.8345 57.4199 41.2946 55.9015 40.425 54.5713C39.5555 53.241 38.3814 52.1371 37 51.3511V34.0027C37 33.2266 36.8193 32.4611 36.4721 31.7669C36.125 31.0726 35.621 30.4688 35 30.0031V16.6243C35.6386 15.9003 35.9938 14.9698 36 14.0045C36.0104 13.8514 36.0104 13.6977 36 13.5446C36.7037 13.1727 37.4967 13.003 38.291 13.0542C39.0852 13.1053 39.8498 13.3755 40.5 13.8345C43.67 15.9544 46 16.8943 48.16 16.8943H48.53C48.8472 17.5026 49.3155 18.0191 49.89 18.3941L42.35 35.0026H41C40.7348 35.0026 40.4804 35.108 40.2929 35.2955C40.1054 35.483 40 35.7373 40 36.0025C40 39.1848 41.2643 42.2368 43.5147 44.487C45.7652 46.7373 48.8174 48.0014 52 48.0014C55.1826 48.0014 58.2348 46.7373 60.4853 44.487C62.7357 42.2368 64 39.1848 64 36.0025C64 35.7373 63.8946 35.483 63.7071 35.2955C63.5196 35.108 63.2652 35.0026 63 35.0026ZM12 13.0046C12.3956 13.0046 12.7822 13.1219 13.1111 13.3417C13.44 13.5614 13.6964 13.8737 13.8478 14.2391C13.9991 14.6046 14.0387 15.0067 13.9616 15.3946C13.8844 15.7825 13.6939 16.1388 13.4142 16.4185C13.1345 16.6982 12.7781 16.8887 12.3902 16.9658C12.0022 17.043 11.6001 17.0034 11.2346 16.852C10.8692 16.7007 10.5568 16.4443 10.3371 16.1155C10.1173 15.7866 10 15.4 10 15.0044C10 14.4741 10.2107 13.9654 10.5858 13.5904C10.9609 13.2153 11.4696 13.0046 12 13.0046ZM12 46.0016C9.52094 46.0017 7.13025 45.0809 5.29172 43.4181C3.45319 41.7553 2.29791 39.4689 2.05 37.0024H22C21.7513 39.4775 20.5889 41.7709 18.7398 43.4349C16.8907 45.099 14.4877 46.0141 12 46.0016ZM19.45 35.0026H4.55L11.76 19.0041H12H12.24L19.45 35.0026ZM30 14.0045C30 13.609 30.1173 13.2224 30.3371 12.8935C30.5568 12.5646 30.8692 12.3083 31.2346 12.1569C31.6001 12.0056 32.0022 11.966 32.3902 12.0431C32.7781 12.1203 33.1345 12.3108 33.4142 12.5904C33.6939 12.8701 33.8844 13.2265 33.9616 13.6144C34.0387 14.0023 33.9991 14.4044 33.8478 14.7698C33.6964 15.1352 33.44 15.4476 33.1111 15.6673C32.7822 15.8871 32.3956 16.0043 32 16.0043C31.4696 16.0043 30.9609 15.7937 30.5858 15.4186C30.2107 15.0436 30 14.5349 30 14.0045ZM32 2.41558L35.59 6.00525H28.41L32 2.41558ZM33 8.00507V10.1449C32.3464 9.95815 31.6536 9.95815 31 10.1449V8.00507H33ZM44 61.5002C44 61.6328 43.9473 61.76 43.8536 61.8537C43.7598 61.9475 43.6326 62.0002 43.5 62.0002H20.5C20.3674 62.0002 20.2402 61.9475 20.1464 61.8537C20.0527 61.76 20 61.6328 20 61.5002C20 61.3676 20.0527 61.2405 20.1464 61.1467C20.2402 61.0529 20.3674 61.0003 20.5 61.0003H43.5C43.6326 61.0003 43.7598 61.0529 43.8536 61.1467C43.9473 61.2405 44 61.3676 44 61.5002ZM39.93 59.0005H24.07C24.3259 57.0788 25.2711 55.3154 26.7297 54.0382C28.1883 52.7611 30.0612 52.0571 32 52.0571C33.9388 52.0571 35.8117 52.7611 37.2703 54.0382C38.7289 55.3154 39.6741 57.0788 39.93 59.0005ZM32 50.0013C30.9824 50.0011 29.9708 50.1562 29 50.4612V34.0027C29 33.2071 29.3161 32.4441 29.8787 31.8816C30.4413 31.319 31.2044 31.003 32 31.003C32.7957 31.003 33.5587 31.319 34.1213 31.8816C34.6839 32.4441 35 33.2071 35 34.0027V50.4612C34.0292 50.1562 33.0176 50.0011 32 50.0013ZM31 29.0032V17.8642C31.6536 18.0509 32.3464 18.0509 33 17.8642V29.0032H31ZM52 13.0046C52.3956 13.0046 52.7822 13.1219 53.1111 13.3417C53.44 13.5614 53.6964 13.8737 53.8478 14.2391C53.9991 14.6046 54.0387 15.0067 53.9616 15.3946C53.8844 15.7825 53.6939 16.1388 53.4142 16.4185C53.1345 16.6982 52.7781 16.8887 52.3902 16.9658C52.0022 17.043 51.6001 17.0034 51.2346 16.852C50.8692 16.7007 50.5568 16.4443 50.3371 16.1155C50.1173 15.7866 50 15.4 50 15.0044C50 14.4741 50.2107 13.9654 50.5858 13.5904C50.9609 13.2153 51.4696 13.0046 52 13.0046ZM51.76 19.0041H52H52.24L59.45 35.0026H44.55L51.76 19.0041ZM52 46.0016C49.5123 46.0141 47.1093 45.099 45.2602 43.4349C43.4111 41.7709 42.2487 39.4775 42 37.0024H62C61.7513 39.4775 60.5889 41.7709 58.7398 43.4349C56.8907 45.099 54.4877 46.0141 52 46.0016Z" fill="white"/>
</svg>
